<svg xmlns="http://www.w3.org/2000/svg" width="441.082" height="516.327" viewBox="0 0 441.082 516.327">
  <g id="Artwork_2" data-name="Artwork 2" transform="matrix(0.914, -0.407, 0.407, 0.914, 220.541, 258.164)">
    <path id="Path_3904" data-name="Path 3904" d="M286.974,219.425c-2.437-1.564-5.661.311-9.744,2.686-3.577,2.082-8.03,4.672-12.43,5.2-3.217.392-8.952-.158-15.026-.735-11.4-1.081-24.311-2.311-31.531,1-10.521,4.823-26.521,17.534-27.986,18.706a74.665,74.665,0,0,0-19.491-.037,17.361,17.361,0,0,0,2.921-4.324c1.71-3.747,4.657-10.2,8.579-17.3a146.736,146.736,0,0,0,16.895,2.117c25.766,1.979,36-9.976,44.218-19.572,1.762-2.057,3.426-4,5.166-5.747,4.512-4.531,8.76-12.092,11.232-17.657,2.46-5.541,4.894-12.675,2.519-15.193-2.42-2.57-6.377.927-7.679,2.075-8.013,7.1-16.537,9.44-26.4,12.151a164.863,164.863,0,0,0-17.473,5.553c-20.107,7.909-35.295,41.166-40.286,52.094-1.2,2.62-3.6,5.094-6.722,7.4a1.71,1.71,0,0,0-.311.234c-10.973,7.923-30.443,13.713-38.791,15.95A247.619,247.619,0,0,0,138.5,234.975c3.616-3.572,35.956-35.565,41-42.39,1.722-2.328,6.687-4.909,12.436-7.9,10.193-5.3,24.156-12.559,33.87-25.162,15.267-19.8,22.892-49.825,23.208-51.093a1.776,1.776,0,0,0-2.983-1.682c-.318.32-31.908,32.015-49.14,35.7-18.437,3.942-21.814,22.626-20.9,33.046.605,6.917,1.061,12.485,1.209,14.3-.2.222-.383.449-.553.676-3.828,5.178-25.018,26.44-35.31,36.685a125,125,0,0,0,6.786-40.661c0-.029.013-.054.015-.082a15.211,15.211,0,0,0-.039-1.754c-.04-2.075-.14-4.174-.286-6.29.721-2.432,7.139-23.566,14.3-31.753a12.435,12.435,0,0,0,1.52-2.193,2.093,2.093,0,0,0,.283-.1c.183-.084,18.622-8.447,32.717-18.366,14.555-10.243,22.369-54,22.693-55.854a1.775,1.775,0,0,0-3.13-1.421c-.052.062-5.249,6.418-16.177,14.209a61.325,61.325,0,0,1-14.853,7.563c-4.662,1.806-9.065,3.511-14.043,7.2-5.809,4.31-6.52,15.072-7.206,25.48-.563,8.52-1.145,17.33-4.477,21.139-5.178,5.916-9.8,17.52-12.536,25.362-.321-2.354-.686-4.729-1.142-7.147a116.642,116.642,0,0,0-19.434-45.59,50.115,50.115,0,0,0-2.489-10.383c.881-3.691,4.283-18.661,4.082-28.558a80.012,80.012,0,0,0,13.558-17.031c6.133-10.457-.61-54.455-1.4-59.436A1.775,1.775,0,0,0,137.24.366a59.648,59.648,0,0,0-19.015,28.551c-5.338,18.469,2.449,36.961,5.378,43.924,2.011,4.773-.251,18.842-2.134,27.935A49.285,49.285,0,0,0,99.006,77.631c-3.379-1.707-6.7-3.453-9.919-5.21-.525-1.123-1.1-2.356-1.709-3.678C76.529,45.323,64.273,19.9,56.126,14.662A35.94,35.94,0,0,0,36.3,8.678a1.776,1.776,0,0,0-1.574,2.363c.076.215,7.595,21.673,7.595,29.148,0,8.357,24.708,24.118,44.021,34.76q.469,1,.875,1.858c1.947,4.1,6.675,8.893,12.66,14.964,14.246,14.455,35.777,36.3,42.385,71.381.491,2.615.883,5.183,1.214,7.726-3.543-5.915-9.757-12.563-20.682-18.138-3.5-1.786-7.077-3.683-10.654-5.661q-.4-1.16-.819-2.373c-4.428-12.854-10.489-30.46-21.311-41.4A191.92,191.92,0,0,0,59.475,78.161a1.775,1.775,0,0,0-2.713,1.369c-.059.774-1.387,19.106,4.786,32.178,6.111,12.944,31.057,28.527,47.681,37.805a71.215,71.215,0,0,0,4.465,10.847c5.151,8.969,26.316,23.765,30.843,26.867-.087,27-9.465,51.024-24.945,78.549-.035.054-.062.108-.094.165q-4.634,8.236-9.978,16.949c-1.625-7.44-5.321-22.448-10.407-31.575,3.88-2.1,11.466-10.284,12.537-42.1,1.125-33.536-13.787-50.274-21.185-53.124-2.18-.841-3.318-.219-3.883.451-1.034,1.221-.873,2.926-.609,5.752.525,5.593,1.5,16.005-4.773,33.783-2.713,7.689-9.927,34.161,11.157,52.063,5.773,4.9,10.857,22.941,13.382,34.089-5.371-5.146-15.1-13.918-24.878-19.949a272,272,0,0,1-8.873-39.807c-1.752-11.665.082-15.225,2.408-19.734,2.44-4.734,5.208-10.1,5.086-24.637-.1-12.236-7.482-25.209-21.338-37.518a123.708,123.708,0,0,0-20.894-14.939,1.776,1.776,0,0,0-2.312,2.563c7.279,10.659,12.472,54.663,9.418,79.807-3.12,25.655,12.768,45.911,29.895,54.606,13.2,6.7,28.3,21.378,32.194,25.28-3.155,5.1-6.455,10.344-9.9,15.781-1.317,2.079-2.5,4.186-3.58,6.31a38.082,38.082,0,0,0-25.416-13.718,94.525,94.525,0,0,1-9.951-1.618c-20.341-9.428-20.643-18.238-21.261-36.025-.124-3.587-.264-7.654-.585-12.093-2.195-30.387-25.83-51.873-26.834-52.773a1.777,1.777,0,0,0-2.8,2.07c1.177,2.566.738,26.945-3.8,35.577-4.924,9.352-2.275,28.711,10.59,43.676,10.077,11.725,27.693,19.461,43.65,22.971,3.256,1.5,6.969,3.012,11.209,4.547,11.6,6.179,18.46,18.232,19.858,20.865a86.05,86.05,0,0,0-3.286,20.457,1.773,1.773,0,0,0-.047,1.1c-1.431,46.108,30.152,90.472,30.571,91.051A1.776,1.776,0,0,0,117.739,434c-.409-.565-31.3-43.956-29.928-88.718,3.454-3.232,19.693-18.787,32.338-37.123,2.867-1.322,23.008-10.186,52.95-13.371,11.723-1.246,20.346-5.306,25.63-12.065a26.668,26.668,0,0,0,5.392-18.7,1.784,1.784,0,0,0-2.513-1.362c-.04.018-4.177,1.863-18.06,3.7-3.456.452-7.886.05-12.574-.377-14.09-1.29-33.381-3.056-42.138,19.192-8.723,22.155-32.019,46.33-40.717,54.865a76.111,76.111,0,0,1,11.424-34.459c8.471-13.366,16.109-25.626,22.7-37.274,4.852-1.181,29.38-7.49,43.121-17.357,1.382-.414,15.983-4.465,36.946,1.392,3.937,1.1,7.516,2.25,10.672,3.263,7.575,2.432,13.691,4.4,20.191,4.4,6.9,0,14.224-2.213,24.177-8.42,20.088-12.529,30.961-24.54,30.994-29.478A3.032,3.032,0,0,0,286.974,219.425Zm-74.932-27.769a161.076,161.076,0,0,1,17.113-5.434c10.294-2.829,19.185-5.272,27.818-12.917a11.088,11.088,0,0,1,2.792-1.984c.563,3.609-6.133,19.957-13.736,27.594-1.835,1.842-3.543,3.833-5.35,5.942-8.1,9.456-17.3,20.161-41.235,18.344-8.328-.7-13.072-1.428-15.334-1.84C191.185,209.182,200.9,196.037,212.042,191.656Zm-14.414-45.733c14.224-3.041,36.376-22.783,46.107-32-3.091,9.974-10.07,29.578-20.744,43.429-9.238,11.981-22.8,19.031-32.7,24.178a104.057,104.057,0,0,0-9.762,5.479c-.224-2.7-.579-6.925-1.007-11.829C179.431,174.168,177.571,150.21,197.628,145.923Zm-30.174-22.547c.634-9.6,1.29-19.53,5.778-22.86,4.593-3.409,8.777-5.03,13.208-6.745a64.386,64.386,0,0,0,15.633-7.985,111.52,111.52,0,0,0,12.544-10.3c-2.669,12.391-9.683,40.283-20.036,47.568-10.45,7.354-23.374,13.854-29.128,16.621C166.682,135.056,167.062,129.32,167.454,123.376ZM121.637,29.9C125.18,17.642,133.093,8.986,137.05,5.248c2.193,15.045,5.671,46.539,1.359,53.89a77.9,77.9,0,0,1-10.945,14.278,10.822,10.822,0,0,0-.587-1.954C124.079,64.816,116.647,47.165,121.637,29.9ZM45.874,40.189c0-6.557-4.926-21.859-6.952-27.87A34.416,34.416,0,0,1,54.2,17.649c7.835,5.037,22.342,36.164,29.605,51.838C62.137,57.19,45.874,44.874,45.874,40.189Zm56.533,49.088A117.585,117.585,0,0,1,92.163,78.089c1.848.977,3.606,1.887,5.24,2.713,14.929,7.549,21.183,20.761,23.736,29.124A245.443,245.443,0,0,0,102.408,89.277ZM64.76,110.193c-4.33-9.167-4.679-21.59-4.578-27.3a195.36,195.36,0,0,1,27.3,22.9c9.873,9.988,15.721,26.277,19.994,38.66C87.97,133.288,69.456,120.137,64.76,110.193ZM97.2,248.276a15.9,15.9,0,0,0-2.544-2.84C75.3,229,82.028,204.407,84.551,197.262c6.534-18.516,5.509-29.434,4.959-35.3-.084-.9-.178-1.887-.212-2.513a17.305,17.305,0,0,1,5.427,4.154c4.329,4.532,14.3,18.038,13.373,45.493C107.024,241.091,99.4,247.182,97.2,248.276ZM75.857,259.457c-16.022-8.135-30.887-27.063-27.976-51.014,2.8-23.03-1.026-60.126-7.25-76.6,10.807,6.957,35.12,24.972,35.3,46.292.116,13.661-2.439,18.612-4.69,22.979-2.516,4.877-4.689,9.09-2.763,21.891a291.356,291.356,0,0,0,7.9,36.721C76.2,259.634,76.031,259.543,75.857,259.457ZM15.6,272.775c-11.515-13.4-14.54-31.346-10.139-39.708,3.671-6.976,5.156-23.7,4.744-32.934,6.707,7.322,20.425,24.8,22,46.662.316,4.376.456,8.405.579,11.961.493,14.229.819,23.669,11.493,32.088C33.137,286.829,22.478,280.777,15.6,272.775Zm116.539,13.706c5.79-14.7,16.3-17.643,27.232-17.643,3.767,0,7.586.35,11.278.686,4.892.447,9.51.871,13.363.362a114.4,114.4,0,0,0,16.678-3.168,23.223,23.223,0,0,1-4.761,13.814c-4.669,5.974-12.477,9.581-23.206,10.723A191.521,191.521,0,0,0,123.682,302.8,100.272,100.272,0,0,0,132.139,286.481Zm-60.928,14a35.2,35.2,0,0,1,20.033,13.114q-1.178,2.644-2.136,5.319C86.226,314.208,80.241,305.9,71.212,300.48Zm45.563-141.888a46.3,46.3,0,0,1-2.845-6.5c2.926,1.579,5.417,2.872,7.253,3.811,17.8,9.086,22.086,20.986,23.1,26.817C137.381,177.859,120.91,165.795,116.775,158.592Zm138.695,89.981c-17.937,11.184-26.272,8.51-41.4,3.656-3.189-1.024-6.8-2.185-10.8-3.3-2.852-.8-5.59-1.421-8.2-1.9,5.176-3.987,16.755-12.6,24.656-16.227,6.357-2.911,19.308-1.682,29.715-.69,6.542.621,12.2,1.157,15.786.728,5.129-.619,9.931-3.411,13.79-5.656,1.9-1.107,4.684-2.724,5.763-2.8C284.313,225.194,275.819,235.878,255.469,248.573Z" transform="translate(-144.171 -218.406)" fill="#dcb5a7"/>
  </g>
</svg>
