<svg xmlns="http://www.w3.org/2000/svg" width="373.654" height="359.719" viewBox="0 0 373.654 359.719">
  <g id="Artwork_1" data-name="Artwork 1" transform="translate(186.827 179.859) rotate(60)">
    <path id="Path_3619" data-name="Path 3619" d="M179.986,154.782c12.419-7.344,55.093-38.261,57.9-47.581,2.5-8.284,11.067-17.359,11.155-17.449a1.284,1.284,0,0,0-1.379-2.088c-11.941,4.456-53.836,30.585-58.576,39.647-3.1,5.921-27.155,24.61-42.481,35.93.317-.679.615-1.353.921-2.031.023-.04.051-.075.071-.118l.2-.44c.015-.033.018-.067.03-.1,1.35-3.038,2.584-6.051,3.67-9.035.517-1.417.987-2.825,1.443-4.229,15.521-7.575,35.643-28.02,41.543-36.79,1.118-1.661,2.256-3.284,3.411-4.935,5.288-7.544,10.756-15.346,16.542-29.523,3.868-9.475,6.327-16.588,7.448-19.984,2.893-8.759,2.559-8.941,1.569-9.481a1.36,1.36,0,0,0-1.792.495,28.6,28.6,0,0,0-1.715,3.53c-1.51,3.365-4.038,9-6.07,11.074-3.015,3.083-16.478,18.141-19.109,23.551-2.514,5.169-8.816,14.968-12.971,18.555-4.594,3.967-17.687,20.806-20.706,26.208a59.569,59.569,0,0,1-5.5,7.794,100.591,100.591,0,0,0,2.062-12.125C172.093,114.226,194.7,56.08,193.72,42.472c-.741-10.283-7.421-30.707-10.087-35.546,0-.022-.011-.044-.016-.063l-.018,0a2.428,2.428,0,0,0-.748-.968,1.3,1.3,0,0,0-1.722,1.6c.2,1.153-.7,9.587-1.364,15.746-.627,5.845-1.17,10.9-1.149,12.5.04,3.23-6.462,26.577-8.295,30.6-1.987,4.358-7.885,27.987-9.431,37a81.484,81.484,0,0,1-2.742,10.8,80.691,80.691,0,0,0-1.324-12.735c3.435-7.13,4.137-22.431,4.555-31.643.116-2.548.207-4.561.327-5.662s.328-2.295.57-3.675a67.145,67.145,0,0,0,.585-22.72C158.431,14.248,144.828.916,144.252.36a1.284,1.284,0,0,0-2.062,1.451c6.075,13.525,7.853,58.364,8.344,77.775-.387-5.4-1.633-16.723-5.408-21.173-3.484-4.109-8.665-13.61-11.763-19.286-.968-1.775-1.732-3.176-2.154-3.874-1.694-2.8-16.736-18.228-21.222-20.586a1.284,1.284,0,0,0-1.561,1.985,91.053,91.053,0,0,1,14.917,26.177c6.6,18.074,15.93,33.166,25,40.5a76.238,76.238,0,0,1,7.04,27.027c-6.2-13.947-21.856-47-35.715-58.638C106.726,40.854,105.254,38.707,104.7,37.9a3.382,3.382,0,0,0-.987-1.014,1.283,1.283,0,0,0-1.8,1.775c.122.179,12.214,17.949,15.761,29.83,3.522,11.8,33.956,46.429,37.856,50.834a93.362,93.362,0,0,1-2.118,16.472c-1.316-5.507-3.342-13.746-4.349-16.623-.807-2.31-11.53-16.017-29.093-38.316-12.288-15.6-25-31.737-26.383-34.433-2.977-5.781-5.192-10.451-5.214-10.5a1.284,1.284,0,0,0-2.442.642c.043.572,1.15,14.224,13.063,33.555,10.351,16.8,15.222,22.273,17.564,24.9.358.4.66.742.917,1.049.292.348.71.811,1.234,1.389A87.022,87.022,0,0,1,133.779,119.6c5.656,11.988,15.275,20.618,17.94,22.865-.281.98-.558,1.96-.869,2.948l-.139.457q-.753,2.362-1.62,4.747c-.874,2.4-1.847,4.826-2.9,7.266-.859-1.346-2.315-4.362-4.2-11.049a52.8,52.8,0,0,0-6.93-13.1C132.8,130.846,97.211,73.059,95.805,69.99c-1.383-3.015-5.051-13.1-5.088-13.2a1.284,1.284,0,0,0-2.49.49c.03.732.787,18.064,6.491,30.461,2.431,5.284,4.449,9.294,6.073,12.518,2.025,4.025,3.364,6.683,3.66,8.248.755,3.968,14.037,19.512,14.17,19.667a76.543,76.543,0,0,1,8.6,13.74c1.639,3.559,14.274,15.738,17.643,18.951A178.634,178.634,0,0,1,134,180.968c-.8-5.351-2.336-15.3-3.209-18.285-1.266-4.323-6.525-11.067-10.644-15.529-3.824-4.144-11.516-21.2-14.4-28.794-2.651-7-18.836-29.58-22.734-34.719-3.553-4.684-4.368-6.734-4.373-6.747a1.284,1.284,0,0,0-2.415.873c.955,2.708,23.582,66.615,42.039,90.971,8,10.335,11.545,15.253,12.726,16.931-.3.457-.589.912-.9,1.37l-.14.207q-4.294,6.408-9.29,12.932c-.828-6.934-3.175-23.39-7.643-32.048-5.706-11.059-15.661-28.733-19.511-33.157-3.638-4.181-14.9-21.389-19.053-32.9-.777-2.152-1.582-4.485-2.408-6.879-3.865-11.2-7.86-22.783-12.2-25.977a1.285,1.285,0,0,0-2.044.967c-.043.806-.952,19.976,7.246,38.964A96.7,96.7,0,0,0,75.208,127.6,56.077,56.077,0,0,1,82.7,141.789c4.924,13.44,29.14,58.364,32.738,65.017q-4.079,5.02-8.544,10.094c-.039.043-.078.085-.116.129-1.025-4.586-3.277-14.231-4.862-17.782-.957-2.146-5.721-11.025-10.765-20.426-5.637-10.506-12.028-22.414-12.9-24.593-.385-.959-.974-2.363-1.668-4.019-2.317-5.521-5.815-13.864-6.849-17.765-.7-2.653-6-11.459-12.131-21.654C51.383,100.465,44.343,88.76,42.62,84.145a1.284,1.284,0,0,0-2.487.473c.006.293.635,29.531,8.932,50.209a122.274,122.274,0,0,0,15.014,27.357,132.464,132.464,0,0,1,7.593,11.878c5.79,10.458,25.825,41.458,30.756,47.785-3.322,3.623-6.682,7.141-10.044,10.542-1.007-5.67-3.867-19.645-9.006-29.089-2.347-4.314-7.116-12.824-12.164-21.833C62.205,165.392,52,147.173,49.9,142.785c-1.018-2.129-2.579-6.452-4.386-11.459-4.2-11.625-9.421-26.092-13.634-29.8a1.283,1.283,0,0,0-2.124.822c-.113,1.034-2.644,25.537,9.716,47.6,11.4,20.355,42.709,80.569,46.819,88.48q-2.514,2.442-5.005,4.785A81.5,81.5,0,0,1,68.8,219.309c-4.743-14.415-8.848-24.053-13.726-32.225-.275-.46-28.074-46.205-34.968-49.354a1.284,1.284,0,0,0-1.8,1.375c.066.4,6.875,40.81,28.3,68.168C55.566,218.717,61.3,226.7,65.481,232.53c5.237,7.3,8.124,11.311,11.857,14.365-3.722,3.426-7.362,6.663-10.872,9.706-1.818-5.111-7.177-19.724-11.923-28.158-3.31-5.88-7.59-12.946-11.731-19.779-2.97-4.9-5.775-9.531-7.916-13.227-5.077-8.763-30.847-44.348-32.627-46.468A1.285,1.285,0,0,0,0,149.835a56.8,56.8,0,0,0,4.246,18.788c1.111,2.534,2.1,5.388,3.136,8.41,2.58,7.487,5.5,15.97,11.854,24.571,3.992,5.411,8.715,11.321,12.881,16.537,5.07,6.346,9.447,11.826,10.883,14.347s6.585,9.158,11.558,15.568c3.439,4.431,7.258,9.352,8.609,11.378-18.581,15.829-32.661,25.528-32.9,25.692a1.284,1.284,0,0,0,1.451,2.12c.244-.168,14.776-10.172,33.836-26.47a1.114,1.114,0,0,0,.117-.068l1.054-.9a1.483,1.483,0,0,0,.107-.124q2.338-2.014,4.755-4.145c2.276.976,8.915,4.976,15.369,8.864,8.551,5.152,18.244,10.992,23.213,13.178,10.246,4.505,25.682,4.577,30.755,4.6h.034c7.4,0,28.211-10.877,29.095-11.342a1.284,1.284,0,0,0-1.143-2.3c-.058.027-5.92,2.726-16.782,3.772-11.2,1.066-26.771-4.138-40.64-13.609-11.343-7.745-27.536-8.059-34.783-7.749q1.695-1.539,3.413-3.13c.029-.023.066-.033.094-.058l1.831-1.707c.021-.018.028-.044.046-.063.873-.817,1.751-1.65,2.629-2.486,3.986,3.419,15.79,7.447,21.087,9.138,8.371,2.673,18.608,5.333,22.759,5.333a6.087,6.087,0,0,0,.931-.061,141.115,141.115,0,0,1,21.852-1.417c22.98,1.826,51.423-11.812,52.622-12.394a1.284,1.284,0,0,0-.953-2.379c-19,6.1-34.367,6.744-45.662,1.926a29.1,29.1,0,0,0-16.653-2.118c-2.847.347-4.391.475-5.65-.575a1.126,1.126,0,0,0-.114-.086c-8.6-5.69-35.619-2.917-45.791-1.626L92.432,236c.023-.023.038-.05.058-.074q3.15-3.146,6.3-6.427c3.134-.164,20.137-1.03,25.816-.891a52,52,0,0,1,6.452.692,111.111,111.111,0,0,0,18.163,1.374q1.932,0,4.1-.052c13.168-.327,24.863-7.4,34.259-13.086,3.021-1.826,5.873-3.553,8.312-4.745,9.791-4.788,28.077-16.092,28.26-16.2a1.284,1.284,0,0,0-.39-2.343,61.286,61.286,0,0,0-42.532,7.825c-20.822,12.807-47.745,18.456-52.495,17.908-4.223-.5-18.029,2.628-25.073,4.324.471-.51.941-1.017,1.408-1.53.006-.006.013-.007.019-.013l.328-.365.207-.227,1.39-1.539c.018-.019.03-.044.047-.066.575-.642,1.154-1.279,1.727-1.929,1.571-1.779,3.094-3.552,4.592-5.321,4.329-.775,40.109-7.19,51.283-9.995,5.892-1.479,17.86-6.311,29.778-12.025,6.338-3.039,21.459-10.588,24.976-15.052,5.087-6.457,16.324-15.159,16.437-15.245a1.284,1.284,0,0,0-1.074-2.267c-9.521,2.2-24.387,8.252-37.992,14.783A47.015,47.015,0,0,0,207.72,162.9a41.433,41.433,0,0,1,8.81-8.8c12.377-8.69,24.886-23.557,25.01-23.706a1.282,1.282,0,0,0,.176-1.374,1.258,1.258,0,0,0-1.176-.733c-17.215.212-39.819,17.367-43.122,21.39-3.325,4.048-23.784,19.739-28.305,20.76-4.029.911-25.448,10.335-34.474,14.345q4.784-7.469,8.6-14.769C146.793,168.861,168.082,161.818,179.986,154.782ZM191.364,128.5c3.632-6.942,36.295-28.246,52.076-36.127-2.816,3.589-6.444,8.9-8.009,14.086-2.368,7.849-42.552,37.714-56.753,46.109-8.888,5.256-23.592,10.667-31.42,13.377C157.459,158.415,187.536,135.819,191.364,128.5Zm-55.262-10a90.723,90.723,0,0,0-15.487-22.763c-.495-.546-.891-.984-1.166-1.312s-.592-.685-.969-1.109c-2.293-2.576-7.064-7.936-17.3-24.543A100.053,100.053,0,0,1,90.861,46.734q.219.429.445.867c1.5,2.915,13.717,18.425,26.649,34.845,12.435,15.789,27.911,35.437,28.687,37.576,1.118,3.193,3.648,13.716,4.848,18.8C147.714,135.32,140.538,127.907,136.1,118.506Zm27.228,12.735c3.117-5.575,16.106-22.031,20.143-25.516,4.4-3.8,10.994-14.013,13.6-19.377,2.343-4.822,15.034-19.194,18.636-22.877a14.136,14.136,0,0,0,1.606-2.062c-1.392,3.869-3.139,8.465-5.259,13.662C206.382,88.979,201,96.661,195.792,104.09c-1.166,1.664-2.313,3.3-3.439,4.975-5.342,7.941-23.731,26.709-38.343,34.778l.118-.388C155.235,142.233,160.487,136.331,163.33,131.241Zm.09-27.471c1.617-9.414,7.488-32.525,9.238-36.364,1.823-4,8.574-27.792,8.526-31.7-.019-1.452.568-6.913,1.135-12.194.477-4.436.839-7.9,1.075-10.5,2.723,7.325,7.116,20.631,7.764,29.642.961,13.339-19.848,64.9-32.963,78.986A97.029,97.029,0,0,0,163.42,103.77Zm-3.094-65.664a64.721,64.721,0,0,1-.581,21.869c-.249,1.425-.465,2.657-.593,3.841s-.221,3.23-.339,5.822c-.325,7.151-.889,19.431-3.007,27.055a78.372,78.372,0,0,0-2.528-8.184c-.039-3.906-.687-57.992-6.646-81.395A75.179,75.179,0,0,1,160.326,38.106Zm-34.572,3.84a95.511,95.511,0,0,0-9.227-18.538c5.366,5.071,11.444,11.451,12.485,13.173.393.649,1.144,2.028,2.1,3.775,3.143,5.763,8.405,15.408,12.059,19.718,2.785,3.284,4.132,12.026,4.674,18.069a1.245,1.245,0,0,0-.595.133,1.294,1.294,0,0,0-.342.278C139.228,70.806,131.364,57.3,125.755,41.946Zm-5.618,25.81c-1.952-6.542-6.261-14.587-9.934-20.782,2,1.775,4.552,3.974,7.809,6.71,14.089,11.831,30.761,48.035,36.033,60.034C145.047,103.327,122.947,77.169,120.137,67.756Zm9.422,73.08a78.449,78.449,0,0,0-8.994-14.347c-4.384-5.067-13.155-16.177-13.59-18.465-.365-1.919-1.691-4.555-3.89-8.923-1.614-3.207-3.621-7.2-6.033-12.438-2.833-6.156-4.406-13.765-5.267-19.712.654,1.681,1.265,3.19,1.685,4.108,1.418,3.1,37.294,61.35,39.574,64.26a50.086,50.086,0,0,1,6.513,12.317c.6,2.144,1.312,4.436,2.09,6.522C136.124,148.7,130.439,142.746,129.558,140.835ZM82.39,87.093c5.72,7.762,18.756,26.35,20.963,32.176,2.465,6.506,10.519,24.87,14.908,29.626,4.241,4.594,9,10.862,10.065,14.508.861,2.942,2.488,13.574,3.24,18.649-1.915-2.632-5.38-7.288-11.256-14.876C106.462,148.9,89.718,106.6,82.39,87.093ZM45.233,231.217c-1.535-2.7-5.971-8.248-11.108-14.679-4.153-5.2-8.859-11.088-12.822-16.458-6.115-8.286-8.971-16.572-11.491-23.884-1.059-3.072-2.059-5.974-3.213-8.6A51.96,51.96,0,0,1,3,154.214c7.085,9.631,25.483,35.279,29.673,42.511,2.154,3.716,4.965,8.358,7.942,13.271,4.13,6.815,8.4,13.861,11.688,19.706,3.991,7.092,8.562,19.039,10.869,25.351-1.6-2.146-3.83-5.022-6.585-8.572C51.9,240.438,46.584,233.589,45.233,231.217Zm64.806,29.6c14.343,9.794,30.558,15.178,42.334,14.044,1.646-.158,3.181-.353,4.6-.569-6.218,2.769-12.84,5.314-16.011,5.314h-.027c-4.941-.024-19.974-.094-29.732-4.384-4.82-2.12-14.437-7.914-22.922-13.026-6.847-4.126-11.765-7.071-14.552-8.479C77.061,253.428,97.252,252.086,110.039,260.818Zm18.4-38.29c5.91.691,33.936-5.848,54.137-18.272,14.932-9.183,30.53-8.766,37.231-8.022-5.6,3.4-17.741,10.68-25.043,14.251-2.541,1.243-5.442,3-8.512,4.854-9.137,5.527-20.508,12.406-33,12.715a111.8,111.8,0,0,1-21.823-1.294,53.714,53.714,0,0,0-6.77-.72c-.417-.01-.891-.015-1.413-.015-4.488,0-12.492.33-18.262.6C112.918,224.733,124.992,222.141,128.435,222.528Zm-54.516-49.71a136.694,136.694,0,0,0-7.729-12.1,120.116,120.116,0,0,1-14.742-26.851C45.642,119.4,43.669,100.563,43.015,90.9c3.032,5.675,7.761,13.538,12.379,21.216C60.92,121.3,66.634,130.8,67.242,133.1c1.08,4.075,4.62,12.515,6.963,18.1.688,1.642,1.272,3.033,1.655,3.984.929,2.309,7.077,13.768,13.024,24.849,5.021,9.357,9.765,18.2,10.683,20.258,1.723,3.861,4.452,16.133,5.1,19.092-.164.182-.327.368-.492.55C99.8,214.044,80.472,184.656,73.919,172.818ZM41.708,148.7c-9.369-16.73-9.843-35.407-9.6-42.8,3.481,5.52,7.736,17.3,10.984,26.3,1.831,5.071,3.412,9.451,4.486,11.695,2.135,4.463,12.366,22.721,21.392,38.83,5.045,9,9.81,17.506,12.149,21.806,5.573,10.241,8.472,26.661,9.035,30.1-.651.649-1.3,1.285-1.952,1.925C82.89,226.327,52.839,168.573,41.708,148.7Zm25.859,82.335c-4.2-5.848-9.946-13.858-18.941-25.343C31.271,183.529,23.673,152.543,21.517,142.2c7.391,7.961,24.618,34.919,31.35,46.2,4.778,8,8.813,17.485,13.493,31.712A82.582,82.582,0,0,0,79.4,244.987l-.161.147C75.646,242.287,72.968,238.558,67.567,231.033Zm65.9,11.947c2.157,1.756,4.656,1.453,7.543,1.1a26.5,26.5,0,0,1,15.338,1.931c7.943,3.388,17.711,4.233,29.179,2.542-10.029,3.253-22.852,6.269-34.065,5.378a144.1,144.1,0,0,0-22.363,1.443c-2.073.317-11.057-1.525-22.511-5.183-10.451-3.338-16.909-6.243-19.533-8.079C94.035,241.165,124.824,237.361,133.465,242.98Zm-16.284-38.343c-4.868-9.025-27.468-51.157-32.074-63.733a58.294,58.294,0,0,0-7.776-14.753,94.448,94.448,0,0,1-9.913-18.024c-6.007-13.915-6.961-28.277-7.063-34.551,3.152,4.706,6.492,14.389,9.273,22.453.831,2.407,1.639,4.75,2.421,6.914,4.329,11.988,15.69,29.3,19.531,33.716,3.669,4.215,13.661,21.98,19.166,32.649,4.958,9.609,7.295,30.249,7.665,33.778-.072.091-.141.182-.213.274ZM217.4,174.649c-4.991,6.335-41.527,23.207-53.36,26.175-6.626,1.662-22.034,4.617-34.291,6.891,13.858-4.063,32.885-10.3,39.486-15.594,9.475-7.6,41.139-23.22,60.237-29.253C225.668,166.068,220.515,170.691,217.4,174.649Zm-49.772,15.469c-8.383,6.726-39.385,15.47-50.273,18.4.2-.243.392-.485.587-.728.012-.013.03-.019.043-.034l1.007-1.265c.4-.5.8-1,1.2-1.507l.561-.7c.012-.016.015-.035.027-.051q5.012-6.4,9.368-12.7c16.325-4.609,20.67-4.648,24.5-4.679,3.958-.033,7.7-.063,22.358-4.555,2.805-.86,5.314-1.732,7.586-2.612C177.225,183.615,171.081,187.344,167.624,190.118Zm2.056-17.175c5.579-1.261,26.3-17.466,29.723-21.634,3.319-4.043,22.816-18.3,38.143-20.236-3.995,4.49-13.3,14.474-22.493,20.928a44.068,44.068,0,0,0-9.332,9.286c-5.022,6.218-10.213,12.649-29.474,18.549-14.3,4.384-17.861,4.413-21.627,4.443-3.563.03-7.547.063-20.209,3.415C146.41,182.344,166.14,173.742,169.68,172.943Z" transform="translate(-124.699 -143.734)" fill="#c69252"/>
  </g>
</svg>
