<svg xmlns="http://www.w3.org/2000/svg" width="372.219" height="385.652" viewBox="0 0 372.219 385.652">
  <g id="Artwork_3" data-name="Artwork 3" transform="translate(233.534 209.745) rotate(49)">
    <g id="Group_1274" data-name="Group 1274" transform="translate(-144.567 -225.752)">
      <g id="Group_1252" data-name="Group 1252" transform="translate(49.641 89.744)">
        <path id="Path_3905" data-name="Path 3905" d="M34.588,380.026a1.649,1.649,0,0,0,1.061-.393c2.457-2.029,4.835-4.083,7.07-6.107A206.941,206.941,0,0,0,87.777,314.72,205.431,205.431,0,0,0,109.459,244c2.579-22.291,1.833-46.046-2.29-72.621-4.078-26.3-11.069-52.34-17.373-74.341-1.882-6.564-3.832-13.226-5.719-19.672C78.546,58.46,72.822,38.911,68.159,19.426a1.443,1.443,0,0,0-1.444-1.16,1.8,1.8,0,0,0-1.381.663,1.59,1.59,0,0,0-.285,1.371c.762,3.174,1.548,6.363,2.344,9.477C71.534,46.02,76.32,62.366,80.948,78.172c2.712,9.251,5.513,18.817,8.156,28.255,5.606,20.036,12.489,46.478,16.027,73.368,3.493,26.546,3.488,50.134,0,72.105a203.554,203.554,0,0,1-24.5,69.216A203.726,203.726,0,0,1,33.4,377.329a1.354,1.354,0,0,0-.467,1.553,1.8,1.8,0,0,0,1.656,1.145Z" transform="translate(-32.847 -18.266)" fill="#a4b4a7" stroke="#a4b4a7" stroke-miterlimit="10" stroke-width="1.228"/>
        <path id="Path_3906" data-name="Path 3906" d="M33.331,377.318a205.075,205.075,0,0,0,47.328-56.334,205,205,0,0,0,24.551-69.359c3.8-23.893,3.149-48.306,0-72.228-3.272-24.88-9.286-49.294-16.041-73.432C82.02,80.4,74.026,55.065,67.467,29.33q-1.2-4.731-2.339-9.477c-.354-1.474,1.911-2.152,2.265-.668,6.259,26.138,14.248,51.8,21.647,77.633,7,24.453,13.457,49.117,17.358,74.287,3.714,23.956,5.08,48.37,2.285,72.5A206.03,206.03,0,0,1,87.051,314.18a207.952,207.952,0,0,1-44.96,58.683q-3.456,3.132-7.06,6.1c-1.155.953-2.874-.673-1.7-1.641Z" transform="translate(-32.504 -17.922)" fill="#a4b4a7" stroke="#a4b4a7" stroke-miterlimit="10" stroke-width="1.228"/>
      </g>
      <g id="Group_1253" data-name="Group 1253" transform="translate(67.455)">
        <path id="Path_3907" data-name="Path 3907" d="M56.276,92.539a.717.717,0,0,0,.732-.634c.123-.806.251-1.607.383-2.412,1.091-6.628,2.555-13.3,3.97-19.761l.162-.727c1.4-6.387,2.85-12.99,3.945-19.559A96.929,96.929,0,0,0,67,31.783,62,62,0,0,0,64.584,15.1,43.288,43.288,0,0,0,56.958.26a.715.715,0,0,0-.57-.26.782.782,0,0,0-.594.26c-.639.747-1.253,1.5-1.828,2.235A68.155,68.155,0,0,0,42.912,23.2,63.536,63.536,0,0,0,39.62,46.626c.427,7.139,2.683,14.042,4.962,20.5,1.857,5.282,3.862,10.553,5.955,15.673.771,1.887,1.675,4.078,2.683,6.21.29.624.609,1.287.978,1.926l.039.069a2.839,2.839,0,0,0,.825,1.012.759.759,0,0,0,.418.128l.084,0a.61.61,0,0,0,.084.113.837.837,0,0,0,.629.29Zm.079-90.51c.231.3.462.614.683.929A43.471,43.471,0,0,1,63.68,17.736a64.329,64.329,0,0,1,1.749,16.533,110.908,110.908,0,0,1-2,17.741C62.4,57.661,61.149,63.375,59.936,68.9l-.649,2.963c-1.292,5.925-2.633,12.2-3.621,18.473a20.386,20.386,0,0,1-1.44-2.874l-.265-.6c-1.027-2.3-1.975-4.648-2.776-6.643-2.186-5.473-4.048-10.47-5.7-15.285-.889-2.584-2.019-6-2.884-9.5A49.262,49.262,0,0,1,41.1,43.806a64.73,64.73,0,0,1,4.166-22.6A66.334,66.334,0,0,1,56.354,2.029Z" transform="translate(-39.525)" fill="#a4b4a7" stroke="#a4b4a7" stroke-miterlimit="10" stroke-width="1.228"/>
        <path id="Path_3908" data-name="Path 3908" d="M55.55,91.335c1-6.623,2.388-13.182,3.818-19.726C60.807,65,62.3,58.4,63.509,51.74a110.193,110.193,0,0,0,2.009-17.81,64.515,64.515,0,0,0-1.764-16.641A43.948,43.948,0,0,0,57.043,2.363q-.6-.848-1.253-1.666l.5-.01A66.952,66.952,0,0,0,44.525,20.714a64.761,64.761,0,0,0-4.2,22.748,49.748,49.748,0,0,0,1.508,11.733c.8,3.223,1.813,6.4,2.894,9.536,1.769,5.149,3.695,10.249,5.714,15.3.889,2.231,1.8,4.461,2.781,6.657a22.9,22.9,0,0,0,1.911,3.8l.079.1c.02.029-.039-.049.025.029.044.054.147.123.054.064.378.251.044.875-.339.624a2.63,2.63,0,0,1-.727-.938c-.354-.614-.663-1.253-.963-1.9-.958-2.029-1.823-4.107-2.673-6.186q-3.162-7.753-5.95-15.653c-2.324-6.6-4.515-13.354-4.933-20.38a62.791,62.791,0,0,1,3.267-23.264A68.08,68.08,0,0,1,53.963,2.417Q54.847,1.289,55.781.2a.356.356,0,0,1,.5-.01,43.1,43.1,0,0,1,7.547,14.69,61.363,61.363,0,0,1,2.4,16.567A97.326,97.326,0,0,1,64.7,49.033c-1.115,6.7-2.579,13.339-4.039,19.972C59.2,75.672,57.731,82.344,56.621,89.08c-.133.806-.26,1.612-.378,2.417-.069.452-.762.285-.693-.162Z" transform="translate(-39.183 0.344)" fill="#a4b4a7" stroke="#a4b4a7" stroke-miterlimit="10" stroke-width="1.228"/>
      </g>
      <g id="Group_1254" data-name="Group 1254" transform="translate(0 73.678)">
        <path id="Path_3909" data-name="Path 3909" d="M130.856,60.015a.821.821,0,0,0,.663-.329.75.75,0,0,0,.093-.678c-.265-.82-.55-1.621-.845-2.383a56.813,56.813,0,0,0-10.553-17.211,67.8,67.8,0,0,0-16.891-13.7,87.981,87.981,0,0,0-21.583-8.79,51.753,51.753,0,0,0-11-1.887c-.5-.025-1.017-.039-1.528-.039a44.71,44.71,0,0,0-8.544.924c-2.152.418-4.319.943-6.412,1.449A69.166,69.166,0,0,1,40.99,19.683a.772.772,0,0,0-.742.693.8.8,0,0,0,.58.855c.835.226,1.641.462,2.407.7a61.131,61.131,0,0,1,17.746,8.908c2.319,1.68,4.55,3.562,6.706,5.38a91.291,91.291,0,0,0,9.006,6.967A55.182,55.182,0,0,0,93.133,50.13a132.609,132.609,0,0,0,17.4,2.884l2.255.26c5.2.594,10.578,1.214,15.806,2.2l.01,0c.56,1.317,1.066,2.663,1.508,4a.771.771,0,0,0,.742.536ZM69.235,16.578a33.482,33.482,0,0,1,3.744.206,62.079,62.079,0,0,1,10.775,2.329,84,84,0,0,1,20.93,9.256A64.849,64.849,0,0,1,120.43,42.087a55.748,55.748,0,0,1,7.394,11.644c-.4-.074-.806-.142-1.209-.211-4.427-.747-8.952-1.268-13.329-1.769-1.548-.177-3.09-.354-4.638-.54A110.153,110.153,0,0,1,91.4,48.037a51.558,51.558,0,0,1-16.277-7.846c-2.285-1.675-4.491-3.523-6.628-5.316a98.547,98.547,0,0,0-8.986-6.967,63.2,63.2,0,0,0-14.43-7.026c3.228-.457,6.412-1.228,9.507-1.98,2.663-.644,5.414-1.312,8.151-1.764A39.532,39.532,0,0,1,69.235,16.578Z" transform="translate(-40.244 -14.996)" fill="#a4b4a7" stroke="#a4b4a7" stroke-miterlimit="10" stroke-width="1.228"/>
        <path id="Path_3910" data-name="Path 3910" d="M130.181,59a54.754,54.754,0,0,0-9.762-17.53,65.494,65.494,0,0,0-15.85-13.806,84.366,84.366,0,0,0-21.038-9.305,63.634,63.634,0,0,0-10.848-2.344,37.562,37.562,0,0,0-10.362.354C55.875,17.432,49.65,19.609,43.14,20.3c-.816.088-1.636.147-2.452.182l.069-.7a62.833,62.833,0,0,1,18.164,8.146c5.547,3.646,10.254,8.352,15.6,12.263a51.993,51.993,0,0,0,16.41,7.915,110.2,110.2,0,0,0,17.319,3.189c5.989.727,12,1.3,17.948,2.309.766.128,1.533.265,2.294.408.447.088.285.776-.162.693-5.984-1.13-12.042-1.759-18.09-2.461A132.8,132.8,0,0,1,92.89,49.368a54.669,54.669,0,0,1-16.307-6.893c-5.6-3.626-10.3-8.426-15.693-12.332a61.946,61.946,0,0,0-17.874-8.971c-.8-.251-1.612-.481-2.422-.7a.355.355,0,0,1,.069-.7C47.4,19.486,53.826,17.275,60.4,16a41.959,41.959,0,0,1,9.969-.879A52.351,52.351,0,0,1,81.281,16.99a87.621,87.621,0,0,1,21.48,8.75,67.569,67.569,0,0,1,16.783,13.614,56.6,56.6,0,0,1,10.475,17.083c.3.776.58,1.567.84,2.358.142.437-.536.634-.678.2Z" transform="translate(-39.898 -14.652)" fill="#a4b4a7" stroke="#a4b4a7" stroke-miterlimit="10" stroke-width="1.228"/>
      </g>
      <g id="Group_1255" data-name="Group 1255" transform="translate(91.998 55.464)">
        <path id="Path_3911" data-name="Path 3911" d="M39.347,88.475a.809.809,0,0,0,.58-.241.744.744,0,0,0,.206-.56c-.02-.624-.02-1.243.015-1.838.28-5.242,2.545-10.18,4.55-14.538,2.231-4.864,4.554-10.1,6.387-15.447A77.1,77.1,0,0,0,54.931,39.6a54.1,54.1,0,0,0-.187-14.346,41.814,41.814,0,0,0-4.451-13.57.775.775,0,0,0-.683-.393.761.761,0,0,0-.7.432L48.1,13.475a135.491,135.491,0,0,0-5.965,14.577,52.392,52.392,0,0,0-2.776,15.471c-.034,2.226.064,4.476.162,6.657.025.5.044,1,.069,1.508.118,2.8.147,5.39.1,7.905a101.9,101.9,0,0,1-1.479,15.673c-.462,2.609-1.037,5.183-1.715,7.655l-.039.157a3.462,3.462,0,0,0-.187,1.494,1.377,1.377,0,0,0,1.174,1.233l.088,0a1.415,1.415,0,0,0,1.091-.57,22.022,22.022,0,0,0-.059,2.486.771.771,0,0,0,.786.747ZM49.714,14a41.2,41.2,0,0,1,3.739,13.462A54.774,54.774,0,0,1,53.064,41.7,82.991,82.991,0,0,1,48.726,57.8c-.894,2.422-1.931,4.967-3.164,7.782C45,66.871,44.4,68.168,43.823,69.426c-.531,1.16-1.061,2.314-1.577,3.479a40.993,40.993,0,0,0-3.5,11.138,1.11,1.11,0,0,0-.413-.4.8.8,0,0,0-.388-.108h0l.029-.1c.034-.113.069-.216.1-.314q.243-.914.472-1.828c.295-1.194.57-2.432.82-3.675.472-2.363.865-4.825,1.164-7.311a112.734,112.734,0,0,0,.742-14.882c-.025-1.636-.1-3.3-.172-4.908a77.547,77.547,0,0,1,0-10.249,56.761,56.761,0,0,1,3.38-14.209c1.474-4.068,3.213-7.959,5.174-12.2Z" transform="translate(-36.241 -11.289)" fill="#a4b4a7" stroke="#a4b4a7" stroke-miterlimit="10" stroke-width="1.228"/>
        <path id="Path_3912" data-name="Path 3912" d="M38.649,87.371c-.187-5.124,1.6-10.018,3.646-14.631,1.086-2.452,2.24-4.869,3.316-7.325,1.13-2.57,2.2-5.169,3.174-7.807a83.624,83.624,0,0,0,4.358-16.184,54.809,54.809,0,0,0,.393-14.346,41.622,41.622,0,0,0-3.778-13.6c-.251-.526-.516-1.047-.8-1.557l.614-.015c-2.078,4.5-4.161,9.011-5.847,13.678a57.185,57.185,0,0,0-3.4,14.312c-.452,5.061.093,10.141.167,15.206a110.717,110.717,0,0,1-.742,14.823q-.435,3.655-1.155,7.271c-.246,1.228-.521,2.447-.816,3.66-.152.609-.31,1.214-.472,1.818a3.188,3.188,0,0,0-.255,1.425c.034.142.079.251.2.221.025-.01.118-.1.133-.1.049,0,0,.054.049.088-.393-.226-.059-.85.339-.624.762.437.054,1.41-.639,1.356a.947.947,0,0,1-.781-.87,3.589,3.589,0,0,1,.216-1.469q1.039-3.8,1.72-7.694a102.411,102.411,0,0,0,1.489-15.737c.049-2.648.01-5.291-.1-7.935-.113-2.712-.27-5.424-.226-8.136A52.176,52.176,0,0,1,42.2,27.848a133.763,133.763,0,0,1,5.945-14.533c.265-.585.536-1.169.806-1.754a.359.359,0,0,1,.619-.015,41.406,41.406,0,0,1,4.4,13.433,53.475,53.475,0,0,1,.182,14.228,76.853,76.853,0,0,1-3.822,16.164c-1.808,5.262-4.053,10.352-6.372,15.4-2.137,4.653-4.309,9.512-4.589,14.7-.029.624-.034,1.253-.01,1.877a.357.357,0,0,1-.712.025Z" transform="translate(-35.897 -10.947)" fill="#a4b4a7" stroke="#a4b4a7" stroke-miterlimit="10" stroke-width="1.228"/>
      </g>
      <g id="Group_1256" data-name="Group 1256" transform="translate(102.997 82.708)">
        <path id="Path_3913" data-name="Path 3913" d="M31.767,101.458a.792.792,0,0,0,.766-.56c.255-.816.531-1.616.816-2.373a45.409,45.409,0,0,1,4.771-9.276,56.963,56.963,0,0,1,6.711-8l.791-.806c1.99-2.024,4.048-4.122,5.886-6.367A64.052,64.052,0,0,0,56.485,67.1a67.338,67.338,0,0,0,7.05-15.634,68.091,68.091,0,0,0,2.909-16.975A64.253,64.253,0,0,0,64.9,17.419a.771.771,0,0,0-.771-.585.742.742,0,0,0-.693.442q-.442,1.024-.914,2.034c-2.486,5.365-5.5,10.475-8.411,15.417l-.133.226c-2.9,4.933-5.911,10.028-8.382,15.309A92.18,92.18,0,0,0,40.012,66.2c-.742,2.835-1.415,5.734-2.064,8.534-.58,2.506-1.184,5.1-1.828,7.63a90.25,90.25,0,0,1-4.687,14.224l-.029,0a.868.868,0,0,0-.644.3.815.815,0,0,0-.177.658l.152.958a.738.738,0,0,0,.737.609c-.157.457-.31.914-.457,1.376a.737.737,0,0,0,.1.663.8.8,0,0,0,.649.314Zm32.1-81.317a63.2,63.2,0,0,1,.87,16.616,66.554,66.554,0,0,1-3.469,16.6,64.947,64.947,0,0,1-7.527,15.1,61.74,61.74,0,0,1-5.257,6.731c-1.194,1.327-2.471,2.624-3.709,3.876-1.14,1.16-2.324,2.353-3.439,3.577a48.387,48.387,0,0,0-6.014,8.136c1.16-3.493,2.044-6.873,2.742-9.7.491-2,.963-4.034,1.42-6,.776-3.336,1.577-6.785,2.491-10.141a86.882,86.882,0,0,1,5.955-15.9c2.255-4.554,4.884-9.011,7.424-13.32l1.223-2.078C58.937,29.613,61.615,24.96,63.865,20.141Z" transform="translate(-30.572 -16.834)" fill="#a4b4a7" stroke="#a4b4a7" stroke-miterlimit="10" stroke-width="1.228"/>
        <path id="Path_3914" data-name="Path 3914" d="M31.088,100.264A47.3,47.3,0,0,1,41.313,82.6c2.324-2.545,4.844-4.9,7.154-7.458a62.471,62.471,0,0,0,5.291-6.78,65.4,65.4,0,0,0,7.576-15.2,67.035,67.035,0,0,0,3.493-16.71,64.039,64.039,0,0,0-.934-17.029c-.133-.683-.28-1.366-.437-2.044l.653.069A143.769,143.769,0,0,1,55.86,33.077C52.873,38.162,49.817,43.212,47.2,48.5a87.744,87.744,0,0,0-5.989,15.978C39.76,69.827,38.625,75.256,37.3,80.636a99.464,99.464,0,0,1-4.962,15.6c-.275.644-.565,1.282-.86,1.916a.359.359,0,0,1-.653-.069l-.157-.963c-.074-.442.609-.649.683-.2l.152.963-.649-.069A87.754,87.754,0,0,0,36.2,82.125c1.366-5.37,2.491-10.8,3.891-16.159A91.479,91.479,0,0,1,45.646,50.1c2.5-5.341,5.5-10.426,8.495-15.5,2.977-5.051,5.96-10.121,8.431-15.452q.472-1.017.914-2.044a.359.359,0,0,1,.653.069,64.07,64.07,0,0,1,1.533,16.955,67.56,67.56,0,0,1-2.889,16.867A66.686,66.686,0,0,1,55.777,66.53a62.929,62.929,0,0,1-4.943,6.932c-2.064,2.52-4.373,4.815-6.652,7.144a56.693,56.693,0,0,0-6.76,8.062,45.816,45.816,0,0,0-4.815,9.36c-.3.791-.57,1.592-.825,2.4-.138.432-.83.275-.693-.162Z" transform="translate(-30.232 -16.49)" fill="#a4b4a7" stroke="#a4b4a7" stroke-miterlimit="10" stroke-width="1.228"/>
      </g>
      <g id="Group_1257" data-name="Group 1257" transform="translate(119.597 227.356)">
        <path id="Path_3915" data-name="Path 3915" d="M34.968,47.852a.794.794,0,0,0,.757-.614.779.779,0,0,0-.752-.963.789.789,0,0,0-.757.609.752.752,0,0,0,.378.87.785.785,0,0,0,.373.1Z" transform="translate(-34.189 -46.275)" fill="#a4b4a7" stroke="#a4b4a7" stroke-miterlimit="10" stroke-width="1.228"/>
        <path id="Path_3916" data-name="Path 3916" d="M34.458,47.033a.355.355,0,0,1,.339-.624.355.355,0,0,1-.339.624Z" transform="translate(-33.846 -45.933)" fill="#a4b4a7" stroke="#a4b4a7" stroke-miterlimit="10" stroke-width="1.228"/>
      </g>
      <g id="Group_1258" data-name="Group 1258" transform="translate(119.498 135.451)">
        <path id="Path_3917" data-name="Path 3917" d="M14.155,125.119a.721.721,0,0,0,.727-.644,20.346,20.346,0,0,1,7.861-13.629c3.184-2.427,7.07-3.587,10.829-4.712.521-.152,1.042-.31,1.557-.467A60.191,60.191,0,0,0,58.044,92.177C65.959,84.94,72.1,76.189,76.556,69.38c1.729-2.643,3.424-5.365,5.061-8,1.046-1.675,2.088-3.356,3.149-5.021a54.427,54.427,0,0,1,9.36-11.615c6.864-6.205,15.393-10.278,23.642-14.219a.745.745,0,0,0,.408-.771.785.785,0,0,0-.614-.688c-1.115-.226-2.221-.427-3.287-.594a75.732,75.732,0,0,0-11.693-.9A80.057,80.057,0,0,0,63.291,37.95a77.965,77.965,0,0,0-21.7,18.326c-6.559,7.93-12.15,17.515-17.1,29.317-4.466,10.662-7.945,21.878-11.305,32.722a.741.741,0,0,0,.1.668.808.808,0,0,0,.649.314.786.786,0,0,0,.766-.56s.914-2.943,1.263-4.068C19.245,104.145,22.841,93,27.518,82.562c5.1-11.394,10.932-20.62,17.81-28.206a75.663,75.663,0,0,1,21.4-16.484,78.468,78.468,0,0,1,24.7-7.925,77.447,77.447,0,0,1,11.1-.806,74.3,74.3,0,0,1,12.352,1.027c-.329.157-.658.314-.988.477-8.146,3.945-16.656,8.377-23.269,15.3A74.17,74.17,0,0,0,81.71,58.286C79.028,62.6,76.257,67.071,73.3,71.443c-6.52,9.625-12.592,16.616-19.117,22.011a60.741,60.741,0,0,1-11.344,7.478,49.82,49.82,0,0,1-6.21,2.6c-1.223.418-2.481.791-3.7,1.15-.978.29-1.99.59-2.977.909-4.923,1.592-8.485,3.773-11.217,6.849a22.2,22.2,0,0,0-5.4,11.762.79.79,0,0,0,.192.629A.84.84,0,0,0,14.155,125.119Z" transform="translate(-13.149 -27.569)" fill="#a4b4a7" stroke="#a4b4a7" stroke-miterlimit="10" stroke-width="1.228"/>
        <path id="Path_3918" data-name="Path 3918" d="M13.421,123.917a21.659,21.659,0,0,1,5.291-11.531,24.221,24.221,0,0,1,11.03-6.726c2.221-.717,4.476-1.307,6.682-2.059a48.924,48.924,0,0,0,6.264-2.629,60.863,60.863,0,0,0,11.428-7.527c7.571-6.259,13.713-14.007,19.2-22.1,2.923-4.314,5.675-8.745,8.421-13.172a73.38,73.38,0,0,1,8.873-12.263c6.446-6.756,14.833-11.192,23.141-15.216,1.042-.506,2.083-1,3.125-1.5l.1.649a75.676,75.676,0,0,0-25.941-.653,79.157,79.157,0,0,0-24.841,7.964A76.293,76.293,0,0,0,44.668,53.723c-7.552,8.328-13.3,18.09-17.884,28.319C22.117,92.448,18.6,103.326,15.209,114.2q-.634,2.034-1.263,4.068c-.138.437-.825.275-.693-.157,3.415-11.01,6.834-22.05,11.3-32.692,4.368-10.426,9.8-20.473,17.029-29.209A77.79,77.79,0,0,1,63.161,37.981,79.879,79.879,0,0,1,87.835,29a77.051,77.051,0,0,1,26.03-.437c1.1.167,2.186.368,3.272.59a.358.358,0,0,1,.1.649c-8.323,3.975-16.842,8.048-23.745,14.287a55.584,55.584,0,0,0-9.433,11.7c-2.751,4.328-5.4,8.721-8.21,13.015-5.346,8.166-11.207,16.1-18.439,22.713a59.825,59.825,0,0,1-22.748,13.4c-4.353,1.331-8.844,2.442-12.524,5.247a20.721,20.721,0,0,0-8.028,13.919c-.059.452-.752.285-.693-.162Z" transform="translate(-12.808 -27.226)" fill="#a4b4a7" stroke="#a4b4a7" stroke-miterlimit="10" stroke-width="1.228"/>
      </g>
      <g id="Group_1259" data-name="Group 1259" transform="translate(19.357 172.56)">
        <path id="Path_3919" data-name="Path 3919" d="M133.532,89.55a.783.783,0,0,0,.752-.614l.025-.123a.825.825,0,0,0,.727-.521.755.755,0,0,0-.2-.835,13.133,13.133,0,0,0-2.3-1.749,17.178,17.178,0,0,0-2.181-1.022,20.079,20.079,0,0,1-1.872-.855A19.128,19.128,0,0,1,124.3,80.3l-.447-.452a30.458,30.458,0,0,1-4.137-5.178c-.84-1.341-1.616-2.761-2.368-4.132-.285-.521-.565-1.037-.855-1.553a69.9,69.9,0,0,0-14.518-18.154A63.473,63.473,0,0,0,82.5,38.772a53.178,53.178,0,0,0-19.2-3.65c-1.15,0-2.314.044-3.459.123-8.583.594-16.867,3.149-24.88,5.626a.762.762,0,0,0-.54.86.787.787,0,0,0,.776.678l.133,0a17.326,17.326,0,0,1,2.3.152,26.19,26.19,0,0,1,9.03,3.292c2.437,1.341,4.815,2.889,7.114,4.387.565.373,1.13.742,1.7,1.105L74.555,63.662,76,64.6c2.653,1.72,5.4,3.5,8.2,5.09a63.968,63.968,0,0,0,10.052,4.554c3.493,1.243,7.114,2.221,10.622,3.169,3.429.929,6.977,1.887,10.377,3.085a93.258,93.258,0,0,1,14.292,6.952q1.8,1.01,3.606,2A.8.8,0,0,0,133.532,89.55ZM63.456,36.689a52.414,52.414,0,0,1,21.318,4.731,63.711,63.711,0,0,1,18.611,12.887,68.955,68.955,0,0,1,7.478,8.726,95.824,95.824,0,0,1,5.586,9.143l.56.992a37.464,37.464,0,0,0,3.6,5.434,48.142,48.142,0,0,0,4.368,4.525c-.668-.359-1.341-.7-2.019-1.042a63.275,63.275,0,0,0-9.571-3.852c-2.437-.747-4.933-1.43-7.35-2.088A128.42,128.42,0,0,1,92.08,71.754c-5.984-2.407-11.487-6-16.808-9.482q-1.371-.9-2.742-1.783L53.276,48.048c-4.2-2.712-8.9-5.748-14.125-6.815,7.566-2.29,15.619-4.466,23.858-4.545Z" transform="translate(-34.419 -35.122)" fill="#a4b4a7" stroke="#a4b4a7" stroke-miterlimit="10" stroke-width="1.228"/>
        <path id="Path_3920" data-name="Path 3920" d="M133.708,87.938A13.544,13.544,0,0,0,129.37,85.3a13.365,13.365,0,0,1-4.176-2.584,49.771,49.771,0,0,1-4.6-4.731,36.629,36.629,0,0,1-3.557-5.375,104.99,104.99,0,0,0-6.171-10.175,69.217,69.217,0,0,0-7.522-8.78A64.425,64.425,0,0,0,84.606,40.683a52.493,52.493,0,0,0-21.947-4.771c-8.47.084-16.7,2.348-24.748,4.8-.988.3-1.97.6-2.958.909l-.113-.7c6.652-.039,12.47,3.67,17.854,7.149L71.955,60.5c6.338,4.1,12.583,8.48,19.618,11.305,6.918,2.776,14.233,4.314,21.338,6.49a62.423,62.423,0,0,1,9.507,3.832c2.953,1.469,5.807,3.125,8.686,4.731.747.418,1.5.835,2.25,1.243a.355.355,0,0,1-.339.624c-5.886-3.2-11.6-6.741-17.962-8.981-6.888-2.427-14.106-3.8-20.994-6.25a63.008,63.008,0,0,1-9.988-4.53c-3.292-1.862-6.451-3.96-9.625-6.014Q64.9,56.794,55.368,50.637c-2.913-1.882-5.793-3.837-8.834-5.513a27.034,27.034,0,0,0-9.183-3.341,17.549,17.549,0,0,0-2.486-.152.358.358,0,0,1-.113-.7c8.092-2.5,16.287-5.011,24.782-5.606A52.436,52.436,0,0,1,82,38.826,63.536,63.536,0,0,1,101.345,50.8a69.838,69.838,0,0,1,14.43,18.046c1.061,1.906,2.068,3.852,3.233,5.7a30.829,30.829,0,0,0,4.2,5.247,21.816,21.816,0,0,0,4.731,4.063c1.307.717,2.756,1.12,4.044,1.872a12.618,12.618,0,0,1,2.221,1.69c.334.314-.157.825-.491.511Z" transform="translate(-34.075 -34.778)" fill="#a4b4a7" stroke="#a4b4a7" stroke-miterlimit="10" stroke-width="1.228"/>
      </g>
      <g id="Group_1260" data-name="Group 1260" transform="translate(123.837 239.437)">
        <path id="Path_3921" data-name="Path 3921" d="M.809,121.807a.755.755,0,0,0,.673-.408,29.787,29.787,0,0,1,2.009-3.267c5.262-7.429,13.958-12.882,26.58-16.675,4.122-1.238,8.382-2.25,12.5-3.233,1.209-.29,2.412-.575,3.616-.87,5.694-1.381,11.438-2.9,17.063-4.51s11.305-3.361,16.862-5.2c1.666-.545,3.351-1.13,4.982-1.7,3.8-1.317,7.733-2.683,11.688-3.7a93.3,93.3,0,0,1,16.936-2.4c5.527-.373,11.4-.663,17.953-.889l.069,0c2.545-.088,5.174-.177,7.812-.177,8.013,0,17.186.742,24.463,6.24a.831.831,0,0,0,.5.177.784.784,0,0,0,.58-1.312c-1.2-1.405-2.294-2.648-3.346-3.808A78.8,78.8,0,0,0,146.223,66.4c-6.009-3.891-12.823-6.539-19.289-8.922-14.6-5.375-27.538-8.21-39.57-8.672-1.159-.044-2.329-.069-3.474-.069a74.867,74.867,0,0,0-31.4,6.446C41.819,60.069,31.992,68.333,23.276,79.736a148.171,148.171,0,0,0-11.5,17.786c-1.607,2.869-3.292,6.033-5.154,9.674q-1.231,2.41-2.442,4.83c-.413.825-.82,1.651-1.233,2.481l-.108.221c-.069.147-.133.285-.206.413a.788.788,0,0,0-.732-.526.748.748,0,0,0-.206.029,1.127,1.127,0,0,0-.87,1.159,1.487,1.487,0,0,0,1.105,1.42,1.648,1.648,0,0,0,.26.034,31.9,31.9,0,0,0-2.093,3.4.757.757,0,0,0,.01.757A.838.838,0,0,0,.809,121.807Zm138.172-44.6c-3.3,0-6.638.138-9.871.27l-1.15.049c-6.117.251-12.1.516-18.11,1.046a82.415,82.415,0,0,0-17.1,3.184c-3.179.978-6.377,2.073-9.468,3.135-2.447.835-4.977,1.7-7.483,2.506-5.689,1.823-11.487,3.547-17.23,5.129-5,1.376-10.465,2.766-17.191,4.368a155.46,155.46,0,0,0-16.376,4.569c-8.47,3.027-15.128,7.124-19.893,12.219q1.039-2.1,2.1-4.186c1.892-3.729,3.508-6.8,5.085-9.674A150.881,150.881,0,0,1,24.068,81.284C32.862,69.63,42.8,61.258,53.591,56.4a73.343,73.343,0,0,1,30.3-6.092c1.754,0,3.542.054,5.321.157,12.342.722,25.214,3.818,40.509,9.743,6.078,2.348,13.113,5.38,19.215,10.013a85.828,85.828,0,0,1,11.551,10.809,40.572,40.572,0,0,0-14.877-3.6C143.57,77.279,141.4,77.206,138.981,77.206Z" transform="translate(0 -48.734)" fill="#a4b4a7" stroke="#a4b4a7" stroke-miterlimit="10" stroke-width="1.228"/>
        <path id="Path_3922" data-name="Path 3922" d="M.131,120.514c5.085-9.546,14.769-15.447,24.679-18.994a156.06,156.06,0,0,1,16.326-4.555c5.758-1.371,11.5-2.8,17.206-4.373q8.674-2.388,17.25-5.129c5.67-1.813,11.251-3.9,16.945-5.64a81.981,81.981,0,0,1,17-3.169c6.014-.526,12.062-.8,18.09-1.042a152.5,152.5,0,0,1,17.6-.093c5.473.4,11.005,1.484,15.865,4.142a27.238,27.238,0,0,1,3.321,2.157l-.491.511a98.47,98.47,0,0,0-15.074-14.8c-5.852-4.441-12.5-7.434-19.318-10.072-13.01-5.036-26.649-8.952-40.642-9.772-12.17-.712-24.654.943-35.827,5.974-11.993,5.4-21.834,14.607-29.69,25.018a153.55,153.55,0,0,0-11.8,18.586c-1.759,3.2-3.444,6.436-5.095,9.689Q5.231,111.422,4,113.9c-.4.806-1.051,2.83-2.324,2.555-.791-.167-1.135-1.5-.221-1.739.442-.118.649.565.2.678-.31.079.339.359.295.359.192,0,.368-.251.472-.378a5.753,5.753,0,0,0,.565-1.022q.612-1.245,1.233-2.476,1.209-2.425,2.437-4.83c1.661-3.248,3.365-6.476,5.144-9.659A148.679,148.679,0,0,1,23.277,79.651C31.01,69.535,40.654,60.573,52.323,55.228,63.132,50.27,75.174,48.433,87,48.89c13.536.516,26.786,3.985,39.443,8.647,6.608,2.432,13.27,5.036,19.205,8.878a79.484,79.484,0,0,1,15.437,13.6c1.135,1.248,2.24,2.516,3.336,3.8a.355.355,0,0,1-.491.511c-9.227-6.972-21.652-6.525-32.618-6.146-5.994.206-11.983.486-17.967.889A93.218,93.218,0,0,0,96.33,81.484c-5.665,1.459-11.148,3.577-16.695,5.409q-8.372,2.764-16.847,5.188t-17.044,4.51C40.35,97.9,34.926,99.1,29.6,100.7c-10.17,3.051-20.5,7.93-26.811,16.837a30.156,30.156,0,0,0-2.039,3.316.355.355,0,0,1-.624-.339Z" transform="translate(0.344 -48.389)" fill="#a4b4a7" stroke="#a4b4a7" stroke-miterlimit="10" stroke-width="1.228"/>
      </g>
      <g id="Group_1261" data-name="Group 1261" transform="translate(82.768 231.296)">
        <path id="Path_3923" data-name="Path 3923" d="M73.33,145.453a.718.718,0,0,0,.732-.639c.133-.894.236-1.813.295-2.732a45.507,45.507,0,0,0,.01-5.567,1.86,1.86,0,0,0,.575.1,1.323,1.323,0,0,0,.2-.015,1.115,1.115,0,0,0,.934-.757.989.989,0,0,0-.3-1.047,1.158,1.158,0,0,0-.766-.295.915.915,0,0,0-.624.226l-.142-.093c-.113-1.366-.251-2.712-.378-3.862-.329-3.022-.771-7.011-1.258-11.02A219.842,219.842,0,0,0,69,97.962a102.77,102.77,0,0,0-6.819-20.606A72.173,72.173,0,0,0,50.813,59.777a53.038,53.038,0,0,0-16.38-12.622.843.843,0,0,0-.349-.079.81.81,0,0,0-.7.418.749.749,0,0,0,.025.776c.447.717.865,1.44,1.248,2.152a38.671,38.671,0,0,1,3.528,9.2,44.028,44.028,0,0,1,1.125,10.352c0,.722,0,1.449-.01,2.177a62.765,62.765,0,0,0,.378,8.932A73.651,73.651,0,0,0,42.24,91.919a135.466,135.466,0,0,0,6.878,19.127,48.383,48.383,0,0,0,11.6,16.159,71.165,71.165,0,0,0,8.932,6.358l3.076,1.96a41.158,41.158,0,0,1-.211,9.006.782.782,0,0,0,.182.634A.829.829,0,0,0,73.33,145.453ZM36.1,49.794A53.417,53.417,0,0,1,51.329,62.8,72.985,72.985,0,0,1,61.853,80.477,108.792,108.792,0,0,1,68.058,101c1.562,7.507,2.545,15.128,3.3,21.593l.142,1.214c.373,3.179.762,6.466,1.061,9.7l0,.049-.781-.491c-2.442-1.533-4.962-3.125-7.311-4.859a39.817,39.817,0,0,1-7.109-6.756A59,59,0,0,1,48.234,105C47.207,102.36,46.219,99.5,45.124,96,44.092,92.71,43.1,89.5,42.3,86.259A45.868,45.868,0,0,1,40.874,76c-.025-1.253-.015-2.53,0-3.763.015-2.245.034-4.569-.162-6.854A40.663,40.663,0,0,0,36.1,49.794Z" transform="translate(-33.285 -47.077)" fill="#a4b4a7" stroke="#a4b4a7" stroke-miterlimit="10" stroke-width="1.228"/>
        <path id="Path_3924" data-name="Path 3924" d="M72.6,144.25a46.289,46.289,0,0,0,.044-11.123c-.339-3.646-.776-7.286-1.2-10.922-.845-7.247-1.823-14.484-3.307-21.628a109.955,109.955,0,0,0-6.23-20.616A73.362,73.362,0,0,0,51.32,62.186,54.11,54.11,0,0,0,35.838,49q-1.128-.619-2.275-1.179l.472-.5a40.129,40.129,0,0,1,5.9,17.746c.295,3.523.093,7.06.162,10.588a46.649,46.649,0,0,0,1.44,10.357c.816,3.287,1.818,6.53,2.83,9.762.953,3.041,1.965,6.063,3.125,9.03a60.473,60.473,0,0,0,9.2,16.577,40.081,40.081,0,0,0,7.188,6.824c3.017,2.235,6.25,4.176,9.409,6.191a7.764,7.764,0,0,0,1.071.663,1.386,1.386,0,0,0,.334.044l-.029.187-.015-.01-.02-.01c-.128-.02-.034-.088.285-.211.039.457-.668.477-.708.025-.054-.565.6-.619.934-.314a.609.609,0,0,1-.4,1.056c-.732.1-1.494-.619-2.059-.978l-2.584-1.651a74.874,74.874,0,0,1-9.428-6.667,48.5,48.5,0,0,1-11.5-16.017,132.976,132.976,0,0,1-6.849-19.068,72.46,72.46,0,0,1-2.555-10.775,82.983,82.983,0,0,1-.368-11.05,44.252,44.252,0,0,0-1.135-10.455,39.458,39.458,0,0,0-3.562-9.3q-.6-1.105-1.268-2.177a.358.358,0,0,1,.472-.5A52.89,52.89,0,0,1,50.145,59.719,71.669,71.669,0,0,1,61.446,77.2,102.806,102.806,0,0,1,68.24,97.718a216.729,216.729,0,0,1,3.592,21.751q.671,5.505,1.258,11.015a63.547,63.547,0,0,1,.5,11.227c-.064.9-.157,1.8-.295,2.7-.064.452-.757.29-.688-.157Z" transform="translate(-32.941 -46.734)" fill="#a4b4a7" stroke="#a4b4a7" stroke-miterlimit="10" stroke-width="1.228"/>
      </g>
      <g id="Group_1262" data-name="Group 1262" transform="translate(116.439 299.908)">
        <path id="Path_3925" data-name="Path 3925" d="M4.776,110a.774.774,0,0,0,.427-.138c1-.673,1.985-1.317,2.943-1.911A111.846,111.846,0,0,1,34.638,96.122a171.416,171.416,0,0,1,29.6-6.043c10.735-1.307,21.662-1.9,31.872-2.339l1.282-.054c4.117-.177,8.377-.364,12.568-.364a83.975,83.975,0,0,1,16.891,1.459c9.227,1.872,18.134,6.328,28.889,14.459a.815.815,0,0,0,.5.172.781.781,0,0,0,.678-.378.769.769,0,0,0,.01-.776c-.707-1.346-1.474-2.653-2.285-3.886-6.019-9.183-15.54-16.891-28.31-22.92a173.464,173.464,0,0,0-18.862-7.345,181.65,181.65,0,0,0-17.545-5.2,66.78,66.78,0,0,0-14.956-1.867c-.865,0-1.734.025-2.579.069a53.905,53.905,0,0,0-17.24,4.1c-6.176,2.461-12.081,5.434-16.543,7.753A62.015,62.015,0,0,0,23.46,83.829,112,112,0,0,0,11.61,98.063c-.825,1.135-1.68,2.339-2.692,3.788-.467.663-.929,1.327-1.4,1.99l-.157.236a2.468,2.468,0,0,1-.545.658,1.8,1.8,0,0,1-.26.167,3.214,3.214,0,0,0-.467.324,1.97,1.97,0,0,0-.57,1.892.991.991,0,0,0,.31.442c-.5.324-.992.649-1.479.978a.783.783,0,0,0-.314.889.794.794,0,0,0,.737.57ZM109.612,85.731c-4.741,0-9.551.236-14.2.462-.958.044-1.916.093-2.874.138-9.61.447-20.964,1.115-32.27,2.687a162.035,162.035,0,0,0-29.557,6.716A111.62,111.62,0,0,0,7.719,106.366a.914.914,0,0,0-.118-.275l.088-.054c.1-.069.182-.123.216-.152a4.888,4.888,0,0,0,.909-1.135c.079-.123.157-.246.236-.359,5.9-8.465,13.241-18.994,23.229-25.878a103.818,103.818,0,0,1,14.464-7.827l1.233-.585a86.559,86.559,0,0,1,15.7-6.063,46.419,46.419,0,0,1,11.5-1.415,52.207,52.207,0,0,1,5.218.265,88.621,88.621,0,0,1,16.145,3.38c5.488,1.6,11.084,3.454,17.108,5.65a121.741,121.741,0,0,1,17.609,7.812c9.91,5.483,17.437,12.214,22.414,20.031l-.128-.088a83.728,83.728,0,0,0-14.371-8.539,57.46,57.46,0,0,0-15.319-4.471A97.337,97.337,0,0,0,109.612,85.731Z" transform="translate(-4.003 -61.042)" fill="#a4b4a7" stroke="#a4b4a7" stroke-miterlimit="10" stroke-width="1.228"/>
        <path id="Path_3926" data-name="Path 3926" d="M4.249,108.554A108.429,108.429,0,0,1,30.5,95.8a162.338,162.338,0,0,1,29.479-6.7c10.686-1.489,21.461-2.186,32.235-2.687,10.367-.481,20.91-1.2,31.228.334a57.02,57.02,0,0,1,15.206,4.437,84.755,84.755,0,0,1,14.3,8.495q1.614,1.164,3.2,2.363l-.55.442c-5.385-10.234-14.484-17.943-24.477-23.475a124.458,124.458,0,0,0-17.673-7.841c-5.645-2.059-11.369-3.97-17.137-5.66a90.04,90.04,0,0,0-16.218-3.39,48.279,48.279,0,0,0-16.872,1.16A87.349,87.349,0,0,0,47.45,69.367c-5.37,2.555-10.848,5.07-15.756,8.451C21.99,84.5,15,94.262,8.356,103.8a6.916,6.916,0,0,1-1.071,1.415c-.157.133-1.513.87-.958,1.184a.355.355,0,0,1,.339-.624c.653.364.157,1.258-.486,1.238-1.022-.029-.629-1.386-.147-1.8.211-.187.472-.3.7-.467a3.867,3.867,0,0,0,.8-1c.467-.663.929-1.327,1.4-1.99q1.327-1.9,2.688-3.783A110.078,110.078,0,0,1,23.42,83.8,61.839,61.839,0,0,1,38.464,73a181.909,181.909,0,0,1,16.5-7.733A54.05,54.05,0,0,1,72.075,61.2a63.379,63.379,0,0,1,17.412,1.788c5.935,1.356,11.738,3.253,17.506,5.188a171.726,171.726,0,0,1,18.812,7.33c10.991,5.188,21.387,12.465,28.138,22.763q1.223,1.865,2.265,3.852a.356.356,0,0,1-.55.437c-8.736-6.6-18.208-12.337-29.066-14.538-10.136-2.054-20.581-1.489-30.845-1.046-10.657.457-21.313,1.046-31.906,2.339a172.838,172.838,0,0,0-29.67,6.058,112.206,112.206,0,0,0-26.6,11.87q-1.5.936-2.953,1.926c-.378.255-.747-.354-.368-.609Z" transform="translate(-3.658 -60.7)" fill="#a4b4a7" stroke="#a4b4a7" stroke-miterlimit="10" stroke-width="1.228"/>
      </g>
      <g id="Group_1263" data-name="Group 1263" transform="translate(28.172 243.962)">
        <path id="Path_3927" data-name="Path 3927" d="M115.142,185.666a.834.834,0,0,0,.7-.408.76.76,0,0,0,.01-.771,17.8,17.8,0,0,0-2.122-3.066c-2.805-3.272-6.539-5.508-10.155-7.674-.771-.462-1.543-.924-2.3-1.39a79.476,79.476,0,0,1-11.939-9.07A82.07,82.07,0,0,1,71.459,139.5a79.62,79.62,0,0,1-5.409-13.983,116.425,116.425,0,0,1-2.977-15.265c-.187-1.327-.364-2.653-.54-3.98-1.174-8.77-2.393-17.835-5.925-26.153a110.045,110.045,0,0,0-8.288-14.965c-2.673-4.274-5.493-8.569-8.4-12.794l1.12.54A130.445,130.445,0,0,1,69.312,71.7,131.005,131.005,0,0,1,91.824,97.116a138.155,138.155,0,0,1,14.484,27.951,128.245,128.245,0,0,1,7.463,29.4,120.727,120.727,0,0,1,.978,15.029c0,2.565-.079,5.154-.241,7.7-.039.658-.088,1.317-.142,1.98-.015.152-.029.31-.049.467a6.536,6.536,0,0,0-.049,1.425,3.547,3.547,0,0,0,.6,1.459,4.057,4.057,0,0,1,.447.919.747.747,0,0,0,.732.565.836.836,0,0,0,.653-.319.771.771,0,0,0,.123-.678,4.558,4.558,0,0,0-.668-1.444,1.434,1.434,0,0,1-.334-.835,17.471,17.471,0,0,1,.152-2.461c.049-.481.1-.978.133-1.464.074-1.253.133-2.525.167-3.778.074-2.56.059-5.159-.034-7.723a122.623,122.623,0,0,0-1.508-15.162,131.449,131.449,0,0,0-8.524-29.553,138.42,138.42,0,0,0-15.658-28.03,132.892,132.892,0,0,0-23.554-24.87A131.679,131.679,0,0,0,37.971,49.724a.817.817,0,0,0-.324-.069.834.834,0,0,0-.737.437.723.723,0,0,0,.059.766q1.275,1.835,2.54,3.68c3.385,4.967,6.657,10.047,9.733,15.1a75.834,75.834,0,0,1,7.4,15.02c2.363,7.08,3.37,14.612,4.343,21.893.373,2.781.757,5.655,1.214,8.465a91.611,91.611,0,0,0,3.537,14.813,82.432,82.432,0,0,0,6.082,13.727,83.3,83.3,0,0,0,18.921,23.067,91.081,91.081,0,0,0,12.2,8.578c4.22,2.545,9.011,5.429,11.551,10.067A.739.739,0,0,0,115.142,185.666Z" transform="translate(-36.827 -49.655)" fill="#a4b4a7" stroke="#a4b4a7" stroke-miterlimit="10" stroke-width="1.228"/>
        <path id="Path_3928" data-name="Path 3928" d="M115.385,182.989c-.226-.835-.933-1.449-1.032-2.314a10.119,10.119,0,0,1,.1-1.808q.081-.995.147-1.99c.162-2.57.241-5.149.241-7.723a120.053,120.053,0,0,0-.983-15.083,128.4,128.4,0,0,0-7.488-29.5A138.477,138.477,0,0,0,91.841,96.532a131.485,131.485,0,0,0-22.591-25.5A130.84,130.84,0,0,0,40.882,52.166q-1.872-.914-3.768-1.769l.472-.5q5.2,7.436,10.028,15.132A109.436,109.436,0,0,1,55.867,79.94c4.039,9.507,5.016,19.9,6.436,30.024a115.963,115.963,0,0,0,2.987,15.324,80,80,0,0,0,5.444,14.056,82.808,82.808,0,0,0,17.972,23.912,79.071,79.071,0,0,0,12,9.119c4.3,2.668,9.006,5.075,12.352,8.981a17.468,17.468,0,0,1,2.073,2.992c.221.4-.388.766-.6.368-2.575-4.7-7.257-7.547-11.708-10.229a91.97,91.97,0,0,1-12.145-8.539A83.282,83.282,0,0,1,71.859,143a82.019,82.019,0,0,1-6.053-13.654A91.448,91.448,0,0,1,62.288,114.6c-1.646-10.17-2.29-20.6-5.576-30.427a75.161,75.161,0,0,0-7.443-15.1Q44.6,61.386,39.521,53.95q-1.26-1.85-2.545-3.68c-.216-.31.182-.629.477-.5A131.569,131.569,0,0,1,66.381,67.682,132.678,132.678,0,0,1,89.856,92.469a137.891,137.891,0,0,1,15.609,27.946,131.085,131.085,0,0,1,8.495,29.454,122.626,122.626,0,0,1,1.508,15.108q.14,3.847.029,7.7-.052,1.879-.167,3.759c-.079,1.307-.329,2.668-.285,3.97a1.841,1.841,0,0,0,.413,1.066,4.18,4.18,0,0,1,.609,1.317.356.356,0,0,1-.683.2Z" transform="translate(-36.485 -49.312)" fill="#a4b4a7" stroke="#a4b4a7" stroke-miterlimit="10" stroke-width="1.228"/>
      </g>
      <g id="Group_1264" data-name="Group 1264" transform="translate(119.327 148.313)">
        <path id="Path_3929" data-name="Path 3929" d="M19.977,111.681a.71.71,0,0,0,.668-.452c.147-.344.3-.693.452-1.037a.719.719,0,0,0,.5-.423l1.194-2.56c.683-1.464,1.587-3.4,2.535-5.36a110.344,110.344,0,0,1,7.355-11.187,153.524,153.524,0,0,1,13.968-16.1c4.343-4.412,9.32-9.05,15.663-14.6,3.292-2.874,6.672-5.758,9.939-8.544q3.191-2.727,6.372-5.458c5.64-4.864,9.87-8.652,13.713-12.288.791-.7,1.553-1.43,2.255-2.157a.761.761,0,0,0,.162-.83.819.819,0,0,0-.742-.5.759.759,0,0,0-.54.226c-.634.609-1.263,1.218-1.9,1.823l-.413.388A82.934,82.934,0,0,1,79.8,40.568c-1.489.924-3.022,1.872-4.505,2.845a159.538,159.538,0,0,0-16.813,13.2A168.71,168.71,0,0,0,43.123,71.472,106.44,106.44,0,0,0,30.369,88.86c-2.049,3.5-4.1,7.419-6.471,12.337a94.788,94.788,0,0,0-4.667,9.355.8.8,0,0,0,.064.757.834.834,0,0,0,.683.373ZM81.593,41.3c-2.226,1.955-4.343,3.773-6.117,5.3q-2.145,1.835-4.3,3.67C67.2,53.662,63.09,57.17,59.106,60.7,52.851,66.235,47.889,70.961,43.477,75.57A153.841,153.841,0,0,0,32.619,88.152c.152-.251.3-.5.452-.747A107.174,107.174,0,0,1,46.209,70.431,183.737,183.737,0,0,1,61.744,55.888c2.437-2.064,5.336-4.491,8.362-6.839A102.7,102.7,0,0,1,78.552,43.2c.663-.418,1.336-.835,2-1.253Z" transform="translate(-19.164 -30.187)" fill="#a4b4a7" stroke="#a4b4a7" stroke-miterlimit="10" stroke-width="1.228"/>
        <path id="Path_3930" data-name="Path 3930" d="M19.284,110.381A100.632,100.632,0,0,1,29.828,91.839,147.439,147.439,0,0,1,43.447,75.527c4.962-5.193,10.224-10.087,15.6-14.848s10.9-9.414,16.366-14.1S86.3,37.16,91.527,32.2q.951-.906,1.9-1.823a.355.355,0,0,1,.511.491c-4.6,4.785-10.386,8.117-15.963,11.615-2.918,1.833-5.758,3.768-8.48,5.881-2.85,2.211-5.626,4.52-8.377,6.849A185.806,185.806,0,0,0,45.55,69.793,106.992,106.992,0,0,0,32.363,86.837a193.71,193.71,0,0,0-10.308,19.849c-.4.855-.791,1.71-1.189,2.56-.192.418-.816.079-.624-.334,3.174-6.829,6.348-13.668,10.155-20.173A105.955,105.955,0,0,1,43.1,71.415,169.077,169.077,0,0,1,58.417,56.6,159.8,159.8,0,0,1,75.186,43.429c5.562-3.636,11.521-6.8,16.459-11.31.614-.56,1.209-1.145,1.783-1.739l.511.491C88.8,35.858,83.43,40.609,78,45.286S67.084,54.577,61.689,59.294,51.018,68.82,46,73.915a155.7,155.7,0,0,0-14,16.145,103.877,103.877,0,0,0-11.025,18.272c-.364.791-.722,1.587-1.066,2.388-.177.418-.8.074-.619-.339Z" transform="translate(-18.819 -29.844)" fill="#a4b4a7" stroke="#a4b4a7" stroke-miterlimit="10" stroke-width="1.228"/>
      </g>
      <g id="Group_1265" data-name="Group 1265" transform="translate(103.714 102.193)">
        <path id="Path_3931" data-name="Path 3931" d="M32.624,83.349a.719.719,0,0,0,.668-.462c.211-.526.432-1.051.653-1.577,1.567-3.66,3.479-7.512,6.014-12.116,1.577-2.859,3.243-5.739,4.849-8.519.644-1.115,1.292-2.231,1.931-3.346,1.941-3.375,4.2-7.384,6.23-11.477a98.643,98.643,0,0,0,5-11.777,63.427,63.427,0,0,0,2.977-12.361.792.792,0,0,0-.187-.634.839.839,0,0,0-.619-.28.747.747,0,0,0-.737.609c-.1.506-.216,1.007-.334,1.513a63.628,63.628,0,0,1-4.132,11.639c-1.808,3.955-3.931,7.822-5.768,11.079-.639,1.14-1.287,2.275-1.936,3.41-1.415,2.481-2.879,5.051-4.255,7.615-2.068,3.842-4.014,7.822-5.788,11.821-1.749,3.955-3.385,8.058-4.854,12.194a.7.7,0,0,0-.02.457c-.152.364-.3.722-.452,1.086a.789.789,0,0,0,.079.752.826.826,0,0,0,.678.373ZM53.647,40.738c-.845,1.9-1.793,3.867-2.85,5.94-2.054,4-4.265,7.871-6.353,11.487l-1.012,1.749c-.938,1.621-1.892,3.267-2.835,4.928,1.44-3.017,2.992-6.043,4.633-9.025,1.105-2.014,2.265-4.048,3.385-6.009.934-1.636,1.9-3.326,2.825-5C52.114,43.6,52.871,42.221,53.647,40.738Z" transform="translate(-31.807 -20.8)" fill="#a4b4a7" stroke="#a4b4a7" stroke-miterlimit="10" stroke-width="1.228"/>
        <path id="Path_3932" data-name="Path 3932" d="M31.924,82.045A123.076,123.076,0,0,1,37.79,69.811c2.147-3.97,4.427-7.866,6.682-11.772,2.191-3.8,4.363-7.606,6.363-11.507a105.322,105.322,0,0,0,5.178-11.649,65.729,65.729,0,0,0,3.243-12.145c.084-.526.157-1.051.226-1.582l.693.162a61.228,61.228,0,0,1-3.832,11.767,123.715,123.715,0,0,1-5.626,11.172c-2.044,3.685-4.181,7.316-6.21,11.005q-3.147,5.719-5.861,11.659-2.734,5.992-5,12.175c-.187.516-.373,1.032-.555,1.548-.152.423-.845.265-.693-.162q2.2-6.168,4.844-12.165t5.773-11.792c1.995-3.709,4.122-7.345,6.191-11.015,2.049-3.636,4.048-7.311,5.783-11.114A64.047,64.047,0,0,0,59.143,22.68c.123-.506.236-1.012.339-1.523.1-.457.752-.285.693.162A62.9,62.9,0,0,1,57.217,33.6a97.577,97.577,0,0,1-4.982,11.723c-1.931,3.9-4.048,7.689-6.215,11.457-2.27,3.95-4.584,7.876-6.785,11.865-2.181,3.965-4.25,8-6.028,12.16-.226.526-.447,1.051-.663,1.582-.167.423-.791.079-.619-.339Z" transform="translate(-31.46 -20.459)" fill="#a4b4a7" stroke="#a4b4a7" stroke-miterlimit="10" stroke-width="1.228"/>
      </g>
      <g id="Group_1266" data-name="Group 1266" transform="translate(92.927 66.981)">
        <path id="Path_3933" data-name="Path 3933" d="M38.531,78.452a.74.74,0,0,0,.742-.614c.1-.54.206-1.076.314-1.612.845-4.27,1.8-8.578,2.845-12.809,1.046-4.255,2.211-8.534,3.454-12.725.614-2.083,1.268-4.191,1.936-6.269l.3-.929c.565-1.734,1.145-3.528,1.612-5.326a41.862,41.862,0,0,0,1.238-12.091,85.744,85.744,0,0,0-1.42-11.841.724.724,0,0,0-.737-.6.851.851,0,0,0-.609.255.754.754,0,0,0-.206.555c.029.56.054,1.115.079,1.675a64.763,64.763,0,0,1-.737,12.637c-.663,4.211-1.661,8.436-2.643,12.371l-.58,2.3c-.86,3.439-1.749,7-2.555,10.519-1,4.4-1.941,8.878-2.791,13.31-.418,2.206-.825,4.456-1.214,6.692-.093.565-.192,1.125-.285,1.69-.015.079-.034.167-.054.26a2.012,2.012,0,0,0,.044,1.435,1,1,0,0,0,.457.413.755.755,0,0,0,.172.408.83.83,0,0,0,.639.295ZM49.369,25.38c.039.811.059,1.6.064,2.378a40.1,40.1,0,0,1-.368,5.788,41.51,41.51,0,0,1-1.351,6.024c-.393,1.317-.825,2.648-1.238,3.935q-.376,1.142-.737,2.29c-.649,2.064-1.282,4.166-1.887,6.245-.427,1.484-.85,2.982-1.258,4.486q.693-3.11,1.43-6.186c.462-1.931.958-3.891,1.435-5.788.5-2,1.027-4.068,1.513-6.107a112.146,112.146,0,0,0,2.25-11.792C49.276,26.225,49.325,25.8,49.369,25.38Z" transform="translate(-37.107 -13.633)" fill="#a4b4a7" stroke="#a4b4a7" stroke-miterlimit="10" stroke-width="1.228"/>
        <path id="Path_3934" data-name="Path 3934" d="M37.812,77.25q1.231-6.419,2.761-12.789t3.351-12.646q.906-3.125,1.882-6.235c.653-2.078,1.356-4.142,1.975-6.23a41.746,41.746,0,0,0,1.366-6.087,41.528,41.528,0,0,0,.373-5.847,72.907,72.907,0,0,0-1.164-11.782c-.084-.491-.167-.978-.255-1.464l.693-.113c.1,2.073.187,4.147.128,6.225-.059,1.995-.226,3.989-.477,5.974A108.352,108.352,0,0,1,46.2,38c-.948,3.97-1.995,7.92-2.948,11.89q-1.5,6.264-2.786,12.573Q39.173,68.8,38.1,75.182l-.128.757c-.02.118-.044.236-.059.349l0,.142-.182.029c-.3,0-.275.108.088.349-.457.029-.477-.683-.025-.708a.445.445,0,0,1,.378.7.5.5,0,0,1-.875-.015c-.226-.4-.015-1,.054-1.415.1-.56.192-1.125.29-1.685q.575-3.346,1.214-6.682,1.268-6.677,2.786-13.3c.978-4.284,2.064-8.544,3.13-12.809,1.022-4.107,1.995-8.23,2.648-12.411a64.484,64.484,0,0,0,.742-12.72c-.02-.56-.049-1.12-.074-1.68-.02-.393.624-.516.693-.113a84.163,84.163,0,0,1,1.415,11.787,41.406,41.406,0,0,1-1.218,11.964c-.55,2.1-1.243,4.166-1.911,6.235s-1.317,4.176-1.941,6.274q-1.872,6.331-3.454,12.745-1.577,6.375-2.85,12.828c-.108.536-.211,1.076-.314,1.611-.088.452-.781.285-.693-.162Z" transform="translate(-36.762 -13.291)" fill="#a4b4a7" stroke="#a4b4a7" stroke-miterlimit="10" stroke-width="1.228"/>
      </g>
      <g id="Group_1267" data-name="Group 1267" transform="translate(81.037 14.951)">
        <path id="Path_3935" data-name="Path 3935" d="M43.352,81.265a.84.84,0,0,0,.7-.4.77.77,0,0,0,.064-.678.749.749,0,0,0,.093-.477c-.074-.653-.133-1.312-.172-1.955a89.242,89.242,0,0,1,.57-13.993l.128-1.361q.339-3.648.7-7.3c.246-2.481.491-4.967.717-7.453.55-5.955.87-10.514,1.042-14.769a140.857,140.857,0,0,0-.1-14.715A100.461,100.461,0,0,0,45.872,7.553,29.664,29.664,0,0,0,45.1,3.608a.74.74,0,0,0-.727-.565.831.831,0,0,0-.639.3.771.771,0,0,0-.152.668c.133.6.26,1.2.378,1.8.138.693.265,1.386.383,2.083a59.036,59.036,0,0,1,0,11.6c-.4,5.694-.752,11.305-1.012,15.555L41.342,67.7c-.025.368-.049.747-.074,1.12-.265,4.093-.545,8.323,1.43,12.047A.727.727,0,0,0,43.352,81.265ZM45.71,22.278c.113,3.867.054,7.994-.177,12.553-.26,5.223-.717,10.352-1.125,14.68q-.265,2.756-.54,5.517c-.162,1.666-.329,3.361-.491,5.061l1.769-29.105q.192-3.132.393-6.264C45.592,23.9,45.651,23.089,45.71,22.278Z" transform="translate(-41.082 -3.043)" fill="#a4b4a7" stroke="#a4b4a7" stroke-miterlimit="10" stroke-width="1.228"/>
        <path id="Path_3936" data-name="Path 3936" d="M42.727,79.445c-.594-5.169-.1-10.391.354-15.55.437-4.9.948-9.792,1.41-14.685s.884-9.792,1.13-14.7c.246-4.869.324-9.753.1-14.626a98.342,98.342,0,0,0-1.69-14.494c-.118-.6-.246-1.209-.378-1.808-.1-.442.56-.649.683-.2a42.857,42.857,0,0,1,.929,13.757c-.143,2.407-.344,4.805-.5,7.212-.182,2.673-.339,5.355-.5,8.033l-.983,16.164L42.29,64.853c-.147,2.452-.359,4.908-.4,7.365A17.965,17.965,0,0,0,42.7,78.5a10.968,10.968,0,0,0,.639,1.454c.216.4-.393.776-.6.368-2.1-3.96-1.572-8.637-1.307-12.941l.992-16.307.992-16.336q.472-7.775,1.012-15.55c.329-4.628.565-9.35-.373-13.929-.113-.56-.246-1.12-.4-1.675l.683-.2a95.745,95.745,0,0,1,1.985,14.474,143.247,143.247,0,0,1,.1,14.671c-.2,4.928-.59,9.841-1.042,14.749s-.968,9.831-1.42,14.749a98.681,98.681,0,0,0-.7,15.417c.044.663.1,1.322.177,1.98.054.457-.653.472-.708.025Z" transform="translate(-40.737 -2.702)" fill="#a4b4a7" stroke="#a4b4a7" stroke-miterlimit="10" stroke-width="1.228"/>
      </g>
      <g id="Group_1268" data-name="Group 1268" transform="translate(21.47 81.568)">
        <path id="Path_3937" data-name="Path 3937" d="M107.24,48.424a.828.828,0,0,0,.757-.531.734.734,0,0,0-.211-.825l-.393-.349a.75.75,0,0,0-.1-.526c-.314-.54-.639-1.071-.963-1.572a52.319,52.319,0,0,0-9.649-10.907,108.134,108.134,0,0,0-11.968-8.991,47.049,47.049,0,0,0-6.972-3.886,44.6,44.6,0,0,0-6.908-2.353,66.655,66.655,0,0,0-14.509-1.838c-1.027-.029-2.108-.044-3.213-.044-3.98,0-7.905.192-11.585.383a.756.756,0,0,0-.737.771.8.8,0,0,0,.762.8c.57.025,1.145.059,1.715.1a107.544,107.544,0,0,1,13.776,1.793,110.168,110.168,0,0,1,13.334,3.5,67.842,67.842,0,0,1,13.29,5.694,85.541,85.541,0,0,1,10.819,8.092l.914.762c3.788,3.154,7.6,6.426,11.32,9.723A.77.77,0,0,0,107.24,48.424ZM53.181,18.174c1.67,0,3.218.034,4.726.1a59.937,59.937,0,0,1,14.111,2.157,40.458,40.458,0,0,1,6.618,2.555,56.453,56.453,0,0,1,6.859,4.152,97.451,97.451,0,0,1,11.428,8.912,52.007,52.007,0,0,1,6.623,7.3c-2.85-2.466-5.743-4.913-8.637-7.3a74.518,74.518,0,0,0-12.15-8.721,80.6,80.6,0,0,0-13.531-5.4,109.955,109.955,0,0,0-13.688-3.366C54.758,18.43,53.972,18.3,53.181,18.174Z" transform="translate(-40.79 -16.602)" fill="#a4b4a7" stroke="#a4b4a7" stroke-miterlimit="10" stroke-width="1.228"/>
        <path id="Path_3938" data-name="Path 3938" d="M105.974,46.435a48.533,48.533,0,0,0-9.1-11.045,100.664,100.664,0,0,0-11.482-8.952,56.726,56.726,0,0,0-6.908-4.176,40.771,40.771,0,0,0-6.692-2.584,60.387,60.387,0,0,0-14.209-2.172c-4.859-.226-9.723-.059-14.577.187l-1.779.088-.02-.707A109.9,109.9,0,0,1,68.757,22a79.978,79.978,0,0,1,13.457,5.37,74.061,74.061,0,0,1,12.077,8.677q5.815,4.8,11.477,9.777c.467.408.929.816,1.39,1.223.339.3-.152.816-.5.511q-5.586-4.952-11.33-9.728a93.682,93.682,0,0,0-11.787-8.9A68,68,0,0,0,70.172,23.2a109.5,109.5,0,0,0-13.388-3.518,108.248,108.248,0,0,0-13.831-1.8c-.575-.039-1.15-.069-1.725-.1a.354.354,0,0,1-.02-.707c4.913-.26,9.836-.481,14.759-.339a66.572,66.572,0,0,1,14.42,1.823,44.124,44.124,0,0,1,6.834,2.334,46.54,46.54,0,0,1,6.908,3.847,108.53,108.53,0,0,1,11.924,8.957,52.526,52.526,0,0,1,9.571,10.814c.334.511.649,1.032.958,1.557a.356.356,0,0,1-.609.368Z" transform="translate(-40.447 -16.258)" fill="#a4b4a7" stroke="#a4b4a7" stroke-miterlimit="10" stroke-width="1.228"/>
      </g>
      <g id="Group_1269" data-name="Group 1269" transform="translate(37.544 178.612)">
        <path id="Path_3939" data-name="Path 3939" d="M115.865,84.257a.8.8,0,0,0,.766-.629.73.73,0,0,0-.354-.825,1.006,1.006,0,0,0,0-.211.72.72,0,0,0-.452-.54c-.762-.314-1.5-.649-2.216-.992-5.129-2.476-10.077-6.082-15.565-11.354-1.852-1.779-3.646-3.69-5.38-5.542A95.386,95.386,0,0,0,84.2,55.844,135.292,135.292,0,0,0,68.1,44.864c-5.287-3.253-11.05-6.446-17.353-7.807a30.237,30.237,0,0,0-6.372-.7,23.239,23.239,0,0,0-9.463,1.9.7.7,0,0,0-.423.776.859.859,0,0,0,.762.708c.811.054,1.548.118,2.26.192a68.292,68.292,0,0,1,16.778,3.911,81.178,81.178,0,0,1,15.968,8.313,159.262,159.262,0,0,1,15.1,10.74c1.764,1.449,3.454,3.036,5.085,4.574q.825.774,1.651,1.543a59.763,59.763,0,0,0,7.212,5.68,149.041,149.041,0,0,0,16.2,9.477A.789.789,0,0,0,115.865,84.257ZM44.33,37.916a30.049,30.049,0,0,1,8.593,1.322c6.294,1.882,12.086,5.517,17.191,8.726C76.167,51.762,81.154,55,85.64,59.21c1.71,1.6,3.331,3.351,4.9,5.046.594.639,1.194,1.282,1.793,1.916,2.132,2.25,4.009,4.127,5.827,5.812h0A70.566,70.566,0,0,1,91.088,65.9a91.97,91.97,0,0,0-7-6.024A185.916,185.916,0,0,0,68.684,49.3,75.676,75.676,0,0,0,52.5,41.552,69.507,69.507,0,0,0,39,38.526,22.669,22.669,0,0,1,44.33,37.916Z" transform="translate(-34.482 -36.354)" fill="#a4b4a7" stroke="#a4b4a7" stroke-miterlimit="10" stroke-width="1.228"/>
        <path id="Path_3940" data-name="Path 3940" d="M114.978,82.728a56.083,56.083,0,0,1-15.811-10.44c-2.383-2.147-4.653-4.427-6.859-6.756s-4.358-4.771-6.716-6.982C80.9,54.143,75.437,50.664,70,47.255c-5.468-3.434-11.064-6.913-17.3-8.775a26.611,26.611,0,0,0-15.712-.28,19.641,19.641,0,0,0-1.877.712l-.192-.658a69.552,69.552,0,0,1,17.1,3.361,75.59,75.59,0,0,1,16.091,7.709A183.329,183.329,0,0,1,83.484,59.877a89.757,89.757,0,0,1,6.967,5.994,71.4,71.4,0,0,0,7.114,6.117,132.48,132.48,0,0,0,16.027,9.748c.7.364,1.4.727,2.108,1.081.408.206.069.83-.339.624a147.419,147.419,0,0,1-16.154-9.453,58.658,58.658,0,0,1-7.158-5.64c-2.235-2.064-4.4-4.191-6.756-6.127A158.238,158.238,0,0,0,70.15,51.446,83.12,83.12,0,0,0,54.1,43.093a68.8,68.8,0,0,0-16.886-3.935c-.757-.079-1.513-.142-2.275-.2-.3-.02-.555-.5-.2-.658a25.374,25.374,0,0,1,15.575-1.169c6.205,1.341,11.855,4.456,17.216,7.748A135.816,135.816,0,0,1,83.578,55.828c5.016,4.181,9.119,9.325,13.821,13.84A61.834,61.834,0,0,0,113.076,81.1c.737.359,1.484.688,2.24,1,.423.177.079.8-.339.624Z" transform="translate(-34.14 -36.009)" fill="#a4b4a7" stroke="#a4b4a7" stroke-miterlimit="10" stroke-width="1.228"/>
      </g>
      <g id="Group_1270" data-name="Group 1270" transform="translate(123.768 256.176)">
        <path id="Path_3941" data-name="Path 3941" d="M9.587,106.854a.714.714,0,0,0,.57-.285c.673-.845,1.361-1.67,2.039-2.452A93.481,93.481,0,0,1,31.8,87.363,162.107,162.107,0,0,1,54.862,75.1c8.1-3.6,16.326-6.81,24.443-9.546a188.378,188.378,0,0,1,25.1-6.726,132.78,132.78,0,0,1,24.821-2.447c.319,0,.644,0,.963,0a.774.774,0,0,0,.766-.752.738.738,0,0,0-.639-.811l-3.729-.491c-1.15-.152-2.3-.314-3.449-.472a139.216,139.216,0,0,0-18.763-1.715,59.387,59.387,0,0,0-5.96.285A89.271,89.271,0,0,0,74.22,58.7,233.438,233.438,0,0,0,51.226,69.681a160.977,160.977,0,0,0-22.91,14.332,73.732,73.732,0,0,0-17.933,19.382.756.756,0,0,0-.1.555c-.442.526-.884,1.056-1.307,1.587a.79.79,0,0,0-.1.85A.806.806,0,0,0,9.587,106.854ZM120.629,55.1a144.831,144.831,0,0,0-19.657,2.805,200.151,200.151,0,0,0-25.278,7.222c-8.431,2.972-16.621,6.279-24.35,9.831A150.817,150.817,0,0,0,28.218,87.879a99.241,99.241,0,0,0-11.256,9.05A82.241,82.241,0,0,1,32.05,83.172,183.99,183.99,0,0,1,54.842,69.553,196.722,196.722,0,0,1,77.561,59.108a81.1,81.1,0,0,1,24.006-5.345c.968-.049,1.975-.074,2.987-.074a87.843,87.843,0,0,1,10.706.737C117.033,54.637,118.8,54.863,120.629,55.1Z" transform="translate(-8.794 -52.141)" fill="#a4b4a7" stroke="#a4b4a7" stroke-miterlimit="10" stroke-width="1.228"/>
        <path id="Path_3942" data-name="Path 3942" d="M8.962,105.463A89.994,89.994,0,0,1,28.123,87.889,150.61,150.61,0,0,1,51.181,75.011c7.94-3.65,16.076-6.913,24.315-9.816a200.569,200.569,0,0,1,25.219-7.208,137.873,137.873,0,0,1,25.814-3.076c1.1-.02,2.2-.025,3.292-.015l-.069.7c-4.928-.653-9.851-1.346-14.789-1.946a80.56,80.56,0,0,0-13.762-.663,82.353,82.353,0,0,0-24.138,5.37A199.344,199.344,0,0,0,54.3,68.826,183.581,183.581,0,0,0,31.454,82.479a77.368,77.368,0,0,0-18.69,18.459c-.6.875-1.179,1.769-1.739,2.678-.236.388-.86.049-.624-.339A73.128,73.128,0,0,1,28.236,84.007,158.408,158.408,0,0,1,51.083,69.72,229.952,229.952,0,0,1,74.037,58.764a89.416,89.416,0,0,1,24.074-6.254c9.414-.934,18.758.663,28.069,1.9l3.734.491c.4.054.329.707-.069.7a132.567,132.567,0,0,0-25.873,2.447,191,191,0,0,0-25.15,6.741c-8.3,2.805-16.474,6.014-24.482,9.566a163.739,163.739,0,0,0-23.116,12.3,93.8,93.8,0,0,0-19.7,16.832q-1.054,1.216-2.054,2.466c-.28.359-.791-.138-.511-.491Z" transform="translate(-8.448 -51.797)" fill="#a4b4a7" stroke="#a4b4a7" stroke-miterlimit="10" stroke-width="1.228"/>
      </g>
      <g id="Group_1271" data-name="Group 1271" transform="translate(90.661 244.237)">
        <path id="Path_3943" data-name="Path 3943" d="M66.067,125.167a.82.82,0,0,0,.6-1.336c-.408-.486-.811-.978-1.2-1.474A89.567,89.567,0,0,1,50.7,95.389a123.886,123.886,0,0,1-3.975-15.9l-.084-.432A108.4,108.4,0,0,0,42.72,63.291a37.593,37.593,0,0,0-7.758-13.329.729.729,0,0,0-1.184.118.817.817,0,0,0-.074.791c.275.619.54,1.233.806,1.857a112.412,112.412,0,0,1,5.154,15.128c.673,2.57,1.263,5.193,1.754,7.8.526,2.81.914,5.689,1.253,8.229a72.211,72.211,0,0,0,1.474,8.136A60.213,60.213,0,0,0,49.9,106.654c1.346,2.437,2.9,4.8,4.412,7.075l.138.216a63.305,63.305,0,0,0,4.972,6.795,23.56,23.56,0,0,0,2.968,2.938,5.375,5.375,0,0,0,3.39,1.425h0A.651.651,0,0,0,66.067,125.167ZM37.394,55.705a43.972,43.972,0,0,1,4.569,10.278A122.316,122.316,0,0,1,45.108,79.4c.2,1,.393,2.009.6,3.012a103.313,103.313,0,0,0,4.284,15.668A91,91,0,0,0,63.8,122.789a15.8,15.8,0,0,1-2.235-2.029,35.492,35.492,0,0,1-2.678-3.174c-1.553-2.064-2.992-4.274-4.378-6.417l-.31-.477a71.384,71.384,0,0,1-4.1-7.021,59.061,59.061,0,0,1-5.011-14.587c-.432-2.122-.722-4.314-1-6.431-.088-.639-.172-1.277-.26-1.916a114.5,114.5,0,0,0-3.272-15.57C39.654,61.994,38.593,58.825,37.394,55.705Z" transform="translate(-33.635 -49.711)" fill="#a4b4a7" stroke="#a4b4a7" stroke-miterlimit="10" stroke-width="1.228"/>
        <path id="Path_3944" data-name="Path 3944" d="M65.626,124.326a4.947,4.947,0,0,1-3.307-1.331,23.081,23.081,0,0,1-2.914-2.884,61.916,61.916,0,0,1-4.933-6.746c-1.572-2.383-3.154-4.766-4.54-7.267a61.313,61.313,0,0,1-3.326-7.065,60.137,60.137,0,0,1-2.388-7.458,73.993,73.993,0,0,1-1.464-8.087c-.368-2.761-.742-5.517-1.258-8.254q-.737-3.95-1.759-7.832a112.676,112.676,0,0,0-5.174-15.191q-.4-.929-.811-1.857c-.147-.334.251-.762.55-.442a37.629,37.629,0,0,1,7.664,13.182,110.081,110.081,0,0,1,3.989,16.135,122.737,122.737,0,0,0,3.989,15.953,89.911,89.911,0,0,0,14.833,27.1c.4.5.8.992,1.209,1.479.29.349-.2.865-.491.511A90.5,90.5,0,0,1,50.051,97.584a103.644,103.644,0,0,1-4.265-15.6,161.416,161.416,0,0,0-3.754-16.474,40.435,40.435,0,0,0-6.967-13.659c-.4-.486-.82-.963-1.253-1.425l.55-.437A113.29,113.29,0,0,1,39.8,64.941,113.592,113.592,0,0,1,43.06,80.452c.388,2.8.7,5.606,1.268,8.377a59.274,59.274,0,0,0,5.051,14.69,71.919,71.919,0,0,0,4.117,7.065c1.518,2.339,3.031,4.692,4.707,6.918a35.249,35.249,0,0,0,2.712,3.213,12.5,12.5,0,0,0,2.982,2.5,3.256,3.256,0,0,0,1.71.4.357.357,0,0,1,.02.712Z" transform="translate(-33.292 -49.366)" fill="#a4b4a7" stroke="#a4b4a7" stroke-miterlimit="10" stroke-width="1.228"/>
      </g>
      <g id="Group_1272" data-name="Group 1272" transform="translate(118.382 308.418)">
        <path id="Path_3945" data-name="Path 3945" d="M14.112,100.816a.775.775,0,0,0,.545-.231l.187-.187a.757.757,0,0,0,.437-.246c.477-.521.958-1.042,1.444-1.553A87.014,87.014,0,0,1,34.34,86.367a178.208,178.208,0,0,1,19.913-9.143A140.522,140.522,0,0,1,75.286,70.66,97.124,97.124,0,0,1,96.2,68.267h.486a74.244,74.244,0,0,1,21.018,3.046.775.775,0,0,0,.231.034.738.738,0,0,0,.727-.639.8.8,0,0,0-.536-.909q-1.393-.479-2.791-.943a115.706,115.706,0,0,0-23.274-5.64,67.589,67.589,0,0,0-7.6-.442,51.691,51.691,0,0,0-13.791,1.774,80.246,80.246,0,0,0-10.927,4.171c-3.587,1.577-6.844,3.105-9.974,4.667a147.785,147.785,0,0,0-19.024,11.2A101.93,101.93,0,0,0,15.581,97.525l-.01.01a.823.823,0,0,0-.241-.039.725.725,0,0,0-.668.427l-.427.875c-.236.226-.467.452-.7.683a.751.751,0,0,0-.172.83.829.829,0,0,0,.747.506ZM96.186,66.695c-.688,0-1.376.01-2.064.025a102.085,102.085,0,0,0-21.77,3.012,150.094,150.094,0,0,0-21.181,7.036A168.339,168.339,0,0,0,31.235,86.3c-.314.177-.624.359-.934.54q1.717-1.245,3.513-2.447A155.065,155.065,0,0,1,52.759,73.666c3.208-1.553,6.6-3.1,10.067-4.579a60.372,60.372,0,0,1,10.657-3.616,51.647,51.647,0,0,1,10.986-1.135,67.412,67.412,0,0,1,10.155.806c2.933.447,5.925,1.066,9.173,1.9C101.306,66.808,98.761,66.695,96.186,66.695Z" transform="translate(-13.307 -62.774)" fill="#a4b4a7" stroke="#a4b4a7" stroke-miterlimit="10" stroke-width="1.228"/>
        <path id="Path_3946" data-name="Path 3946" d="M13.5,99.443A82.907,82.907,0,0,1,31.107,86.33,169.641,169.641,0,0,1,51,76.823a149.118,149.118,0,0,1,21.112-7.011,101.283,101.283,0,0,1,21.682-3,77.185,77.185,0,0,1,21.3,2.339q1.282.332,2.56.717l-.162.693a133.974,133.974,0,0,0-23.136-6.186,58.557,58.557,0,0,0-21.3.334,60.249,60.249,0,0,0-10.74,3.641q-5.092,2.181-10.087,4.589A157.749,157.749,0,0,0,33.23,83.691,102.521,102.521,0,0,0,16.451,97.566q-.936.965-1.833,1.955c-.275.3-.737-.064-.565-.413l.649-1.336c.2-.413.825-.074.624.339l-.649,1.331-.57-.413A99.545,99.545,0,0,1,30.655,84.6a147.435,147.435,0,0,1,18.97-11.168c3.272-1.641,6.6-3.184,9.949-4.663a80.462,80.462,0,0,1,10.868-4.147,55.815,55.815,0,0,1,21.235-1.317,114.536,114.536,0,0,1,23.18,5.616c.933.31,1.862.629,2.791.943.423.147.28.825-.162.693a74.723,74.723,0,0,0-21.141-3.066,97.1,97.1,0,0,0-21.5,2.4,141.413,141.413,0,0,0-21.1,6.584A179.962,179.962,0,0,0,33.79,85.647,87.626,87.626,0,0,0,15.965,98.062c-.663.609-1.317,1.238-1.955,1.877-.319.319-.835-.172-.511-.5Z" transform="translate(-12.964 -62.432)" fill="#a4b4a7" stroke="#a4b4a7" stroke-miterlimit="10" stroke-width="1.228"/>
      </g>
      <g id="Group_1273" data-name="Group 1273" transform="translate(57.034 268.808)">
        <path id="Path_3947" data-name="Path 3947" d="M85.91,163.784a.827.827,0,0,0,.717-.423.733.733,0,0,0,.069-.545.768.768,0,0,0-.088-.609c-.486-.806-.953-1.612-1.4-2.4A113.283,113.283,0,0,1,76.5,138.953c-1.6-4.957-3.036-10.062-4.427-14.995-.668-2.363-1.356-4.805-2.054-7.2-1.838-6.333-4.363-14.656-7.576-22.915a135.732,135.732,0,0,0-10.1-20.95A92.773,92.773,0,0,0,38.494,54.938a.756.756,0,0,0-.536-.226.832.832,0,0,0-.717.432.759.759,0,0,0,.034.776c.516.776,1.012,1.553,1.474,2.294a110.113,110.113,0,0,1,9.694,19.9c1.98,5.321,3.837,10.794,5.63,16.086q1.083,3.2,2.177,6.382s6.038,17.535,7.743,22.487c2.471,7.173,5,14.145,8.711,20.566,1.562,2.707,3.287,5.375,4.952,7.954q.582.9,1.164,1.8l6.441,10.028A.766.766,0,0,0,85.91,163.784ZM42.822,62.047A99.723,99.723,0,0,1,52.575,76.4a144.319,144.319,0,0,1,9.62,21.215c2.914,7.915,5.306,16,7.262,22.856q.619,2.167,1.228,4.333c1.631,5.8,3.321,11.792,5.3,17.594,1.1,3.223,2.221,6.2,3.39,8.962l-1.042-1.621c-1.926-3-3.916-6.092-5.6-9.281-3.2-6.058-5.468-12.671-7.66-19.063l-.658-1.916L52.663,85.345C51.45,81.818,50.2,78.177,48.8,74.65A109,109,0,0,0,42.822,62.047Z" transform="translate(-37.15 -54.712)" fill="#a4b4a7" stroke="#a4b4a7" stroke-miterlimit="10" stroke-width="1.228"/>
        <path id="Path_3948" data-name="Path 3948" d="M85.286,162.452a105.039,105.039,0,0,1-9.237-20.537c-2.457-7.217-4.432-14.582-6.52-21.908-2.2-7.7-4.51-15.373-7.276-22.885A145.435,145.435,0,0,0,52.6,75.844,95.393,95.393,0,0,0,39.3,57.419q-.958-1.024-1.951-2.009l.55-.437a108.007,108.007,0,0,1,10.151,19.49c1.44,3.626,2.7,7.316,3.975,11L55.9,96.734l7.763,22.542c2.457,7.129,4.81,14.351,8.343,21.038,1.774,3.356,3.842,6.539,5.891,9.728l6.392,9.949,1.6,2.486c.251.388-.359.757-.6.368L78.84,152.823c-2.073-3.223-4.191-6.421-6.107-9.738-3.734-6.461-6.254-13.472-8.677-20.5q-3.876-11.239-7.743-22.483c-2.579-7.5-5.046-15.049-7.807-22.478a110.489,110.489,0,0,0-9.733-19.982c-.481-.776-.978-1.543-1.479-2.309a.356.356,0,0,1,.55-.437A92.411,92.411,0,0,1,51.635,72.768,136.122,136.122,0,0,1,61.7,93.654c2.913,7.493,5.326,15.167,7.566,22.876,2.157,7.409,4.117,14.872,6.48,22.212a115.173,115.173,0,0,0,8.745,20.93c.452.811.924,1.616,1.405,2.412a.356.356,0,0,1-.609.368Z" transform="translate(-36.806 -54.368)" fill="#a4b4a7" stroke="#a4b4a7" stroke-miterlimit="10" stroke-width="1.228"/>
      </g>
    </g>
  </g>
</svg>
