<svg xmlns="http://www.w3.org/2000/svg" width="655.984" height="418.202" viewBox="0 0 655.984 418.202">
  <path id="Path_115" data-name="Path 115" d="M2638.91,47.245c47.076-.16,94.763,7.614,142.116,18.18,32.644,7.284,65.391,14.094,98.017,21.447,12.787,2.881,24.509,8.572,35.4,15.9,26.007,17.492,35.672,40.484,29.442,71.2-6.862,33.831-21.278,64.668-38.587,94.218-24.775,42.3-52.9,82.185-87.885,116.76-43.288,42.783-94.411,70.433-155.427,77.975-29.361,3.629-58.825,2.93-88.178.082-53.5-5.191-106.724-12.5-159.52-22.673-22.214-4.279-44.054-9.981-64.856-19.124a143.939,143.939,0,0,1-24.539-13.674c-28.048-19.572-38.432-46.607-34.285-80.051,5.41-43.622,21.676-83.527,41.425-122.248a505.067,505.067,0,0,1,45.649-73.918c30.185-40.25,70.491-63.439,119.455-72.678,24.586-4.64,49.424-6.5,74.37-7.844,21.928-1.181,43.766-4,67.406-3.55" transform="translate(-2289.727 -47.196)" fill="#a4b4a7" opacity="0.19"/>
</svg>
