<svg xmlns="http://www.w3.org/2000/svg" width="335.241" height="415.962" viewBox="0 0 335.241 415.962">
  <g id="Leaf" transform="translate(167.621 207.981)">
    <path id="Path_3840" data-name="Path 3840" d="M335.232,69.473a1.6,1.6,0,0,0-.053-.431,2.1,2.1,0,0,0-.256-.52,1.4,1.4,0,0,0-.145-.173c-.034-.037-.056-.081-.094-.116a1.822,1.822,0,0,0-.223-.137c-.041-.025-.066-.064-.109-.087-.019-.009-.039-.006-.058-.016a1.629,1.629,0,0,0-1.154-.089,1.751,1.751,0,0,0-.175.077,1.486,1.486,0,0,0-.256.112c-25.432,16.379-41.93,41.7-48.329,58.413-3.052,7.97-3.852,16.461-4.627,24.671-1.1,11.685-2.142,22.723-9.087,32.582-8.2,11.645-12.243,27.955-14.075,38.047a138.445,138.445,0,0,0-7.227-22.324c-.214-.491-.439-1.014-.658-1.517a124.36,124.36,0,0,0,12.11-47.226c2.838-6.814,2.223-13.757,1.448-22.363-.183-2.031-.376-4.165-.533-6.422-.583-8.42,3.07-15.106,6.936-22.186,5.738-10.5,11.669-21.366,4.9-38.8-10.827-27.865-10.649-58.994-10.646-59.3a1.65,1.65,0,0,0-2.987-.983c-20.669,28.592-28.719,63.126-22.666,97.241.111.626.206,1.254.308,1.882-4.877-4.44-13.753-13.894-15.88-25.471-3.143-17.125-8.419-24.679-21.7-37.37a61.17,61.17,0,0,1-9.275-10.982c-2.356-5.349-4-8.94-4.229-9.448-.009-.022-.028-.034-.039-.055a1.724,1.724,0,0,0-.173-.239,1.678,1.678,0,0,0-.216-.262,1.484,1.484,0,0,0-.172-.1,1.68,1.68,0,0,0-.333-.2,1.538,1.538,0,0,0-.576-.1l-.022,0c-.055,0-.109.025-.164.031a1.66,1.66,0,0,0-.45.106.309.309,0,0,0-.041.009,1.252,1.252,0,0,0-.139.1,1.659,1.659,0,0,0-.33.239,1.724,1.724,0,0,0-.156.2,1.587,1.587,0,0,0-.183.3,1.65,1.65,0,0,0-.081.262,1.829,1.829,0,0,0-.064.2c-.042.364-4.037,36.941,19.466,75.734,21.61,35.669,32.128,63.8,33.485,67.545-.444,2.657-.872,4.926-1.234,6.73q-1.774-3.812-3.656-7.662c-.011-.02-.017-.042-.03-.061-2.888-5.924-5.943-11.862-9.189-17.6a1.646,1.646,0,0,0-.081-.145c-5.669-10.007-11.879-19.4-18.616-27.063-2.985-27.618-23.751-47.815-53.067-51.519-28.182-3.559-46.378-29.592-46.557-29.855-.023-.036-.061-.053-.087-.086a1.634,1.634,0,0,0-.28-.27,1.784,1.784,0,0,0-.178-.13,1.685,1.685,0,0,0-.378-.148,1.447,1.447,0,0,0-.172-.053,1.615,1.615,0,0,0-.6,0,1.658,1.658,0,0,0-.562.241c-.011.008-.025.008-.036.016-.039.027-.058.067-.094.1a1.662,1.662,0,0,0-.3.311,1.4,1.4,0,0,0-.112.192,1.6,1.6,0,0,0-.134.339,1.536,1.536,0,0,0-.047.236c-.006.05-.027.094-.028.144-.014.528-.786,53.051,48.64,73.044a354.969,354.969,0,0,0,33.948,11.908c7.617,2.3,12.2,3.684,17.134,6.917A97.873,97.873,0,0,0,216.5,150.211c-13.752-11.021-34.412-23.729-60.772-28.825a1.636,1.636,0,0,0-.9-.178,127.9,127.9,0,0,0-46.639.073c-11.943-14.214-10.056-26.916-9.342-30.036.112-.455.184-.708.192-.737a1.478,1.478,0,0,0,.023-.262,1.592,1.592,0,0,0,.027-.32,1.523,1.523,0,0,0-.069-.3,1.05,1.05,0,0,0-.27-.553,1.517,1.517,0,0,0-.2-.245,1.707,1.707,0,0,0-.269-.172,1.568,1.568,0,0,0-.228-.145c-.022-.008-.044,0-.066-.011a.585.585,0,0,0-.053-.03,1.577,1.577,0,0,0-.256-.023,1.021,1.021,0,0,0-.628.034,1.627,1.627,0,0,0-.311.1,1.567,1.567,0,0,0-.248.172,1.644,1.644,0,0,0-.252.2,1.749,1.749,0,0,0-.172.269,1.635,1.635,0,0,0-.148.233,31.031,31.031,0,0,0-1.582,8.059A82.5,82.5,0,0,0,95.6,127.435c-4.118,2.071-19.918,9.345-38.278,9.112C33.516,136.234,5.5,157.511,0,204.972c0,.045.012.086.011.131a1.437,1.437,0,0,0,.023.306,1.464,1.464,0,0,0,.073.309,1.748,1.748,0,0,0,.127.261,1.715,1.715,0,0,0,.186.261,1.735,1.735,0,0,0,.216.2,1.569,1.569,0,0,0,.281.175,1.356,1.356,0,0,0,.142.089,1.52,1.52,0,0,0,.164.03,1.189,1.189,0,0,0,.123.048,1.806,1.806,0,0,0,.258.022.321.321,0,0,0,.034.006,1.651,1.651,0,0,0,.523-.091c.037-.012.067-.036.1-.05a1.649,1.649,0,0,0,.35-.191,1.443,1.443,0,0,0,.123-.114,1.565,1.565,0,0,0,.234-.253,1.613,1.613,0,0,0,.1-.183,1.36,1.36,0,0,0,.106-.186,40.175,40.175,0,0,1,2.949-5.6c2.517-3.2,7.072-6.856,15.187-8.139a78.728,78.728,0,0,1,13.239-.715c9.72.047,18.085.092,25.284-11.032,10.323-15.954,25.067-26.273,45.022-31.542a62.069,62.069,0,0,0,6.257,7.8c2.907,3.362,5.886,6.536,8.909,9.567-9.048,3.585-40.818,18.529-58.652,57.263a42.282,42.282,0,0,1-8.718,8.993c-3.662,2.934-6.555,5.25-10.071,14.6-5.824,15.476-.292,37.369-.055,38.294l.006.012c.011.039.036.072.05.111a1.6,1.6,0,0,0,.211.423,1.4,1.4,0,0,0,.131.141,1.614,1.614,0,0,0,.3.261,1.4,1.4,0,0,0,.191.1,1.611,1.611,0,0,0,.372.128c.044.009.08.038.127.044a1.637,1.637,0,0,0,.212.012l0,0h.047a1.616,1.616,0,0,0,.476-.1c.02-.006.045,0,.067-.012a1.694,1.694,0,0,0,.484-.291c.036-.033.059-.075.094-.109a1.706,1.706,0,0,0,.262-.326,2.055,2.055,0,0,0,.073-.194,1.668,1.668,0,0,0,.116-.3c.05-.253,5.277-25.349,26.623-36.152,17.195-8.7,23.459-16.811,32.129-28.032,2.681-3.468,5.718-7.4,9.364-11.674a72.924,72.924,0,0,1,31.914-21.739c33.2,22.894,67.2,30.351,84.173,30.723,15.128.334,25.273,18.388,26.651,20.98a248.71,248.71,0,0,1,2.685,26.224,53.384,53.384,0,0,0-39.184-19.4c-21.413-.876-86.58-3.515-101.138,75.745a1.4,1.4,0,0,0,0,.141,1.5,1.5,0,0,0,0,.314,1.617,1.617,0,0,0,.056.312,1.727,1.727,0,0,0,.114.272,1.51,1.51,0,0,0,.376.484,1.645,1.645,0,0,0,.27.189,1.424,1.424,0,0,0,.136.1c.048.02.1.014.15.031s.091.052.144.064a1.607,1.607,0,0,0,.351.041l.019,0a1.656,1.656,0,0,0,.5-.084c.047-.016.087-.042.133-.061a1.547,1.547,0,0,0,.309-.164,1.508,1.508,0,0,0,.142-.122,1.3,1.3,0,0,0,.33-.406,1.516,1.516,0,0,0,.1-.15,93.368,93.368,0,0,1,5.258-9.667,19.275,19.275,0,0,1,17.36-6.816c14.592,1.468,18.343-5.1,21.966-11.438a31.421,31.421,0,0,1,4.8-6.877c8.976-8.975,44.261-30.937,88.039-15.931.372,18.284-1.5,35.757-6.369,48.243-12.044,30.867-28.749,92.965-28.916,93.588a1.647,1.647,0,0,0,1.167,2.02,1.608,1.608,0,0,0,.426.058,1.65,1.65,0,0,0,1.593-1.223c.166-.622,16.823-62.545,28.8-93.245.733-1.878,1.4-3.863,2-5.932,4.176-1.362,21.477-7.88,26.658-23.773,4.768-14.62,12.16-33.423,27.137-49.187,10.154-10.688,8.515-26.37,7.069-40.207-.644-6.139-1.25-11.94-.681-16.482,1.729-13.838,13.93-21.007,14.053-21.077a1.65,1.65,0,0,0-1.515-2.928c-17.017,7.878-34.213,30.7-51.111,67.826-7.647,16.8-13.488,32.867-16.893,42.885a243.114,243.114,0,0,0-4.371-41.749,143.229,143.229,0,0,1,3.84-19.819L274.7,200.974c19.877-15.645,22.681-30.751,25.392-45.359.311-1.672.62-3.335.954-4.99,1.2-5.944,6.028-8.57,11.618-11.612,7.736-4.209,16.506-8.979,15.028-23.973C325.383,91.584,335,70.381,335.1,70.17a1.635,1.635,0,0,0,.141-.547C335.245,69.572,335.232,69.525,335.232,69.473ZM191.156,174.348l17.165,2.306a87.435,87.435,0,0,1-15.347.258Q192.056,175.607,191.156,174.348Zm-2.676-3.688q-2.146-2.91-4.212-5.527c9.659.559,19.732,4.232,28.792,8.828Zm34.043,4.7c-.019-.011-.036-.023-.055-.033-15.323-9.087-29.066-13.628-40.952-13.571-8.825-10.468-16.839-16.365-25.695-15.615-9.165.787-15.156.845-25.692-6.083,6.664-1.586,20.068-5.844,25.668-15.3,47.089,9.373,75.372,43.594,77.429,46.159,2.693,5.871,5.218,11.612,7.542,16.986A173.431,173.431,0,0,0,224.9,176.793C224.1,176.3,223.314,175.831,222.523,175.362ZM120.188,132.58l31.148-7.211c-6.964,8.336-21.636,11.487-24.914,12.1C124.5,136.056,122.438,134.441,120.188,132.58ZM248.549,190.2a101.431,101.431,0,0,0-4.832-21.2c6.141-4.219,10.385-8.083,13.3-11.843A125.678,125.678,0,0,1,248.549,190.2Zm17.221-92.01c-3.923,7.184-7.981,14.613-7.33,23.995.158,2.281.352,4.437.537,6.489,1.139,12.654,1.895,21.061-8.879,31.119-.3-60.255,8.8-107.165,12.836-124.951a153.293,153.293,0,0,0,7.553,27.326C276.706,78.167,271.394,87.891,265.77,98.188ZM259.739,6.743c.186,4.438.655,11.448,1.826,19.744-1.148,4.321-15.5,60-14.75,136.126a95.835,95.835,0,0,1-8.731,6.149c.428-2.064.975-4.9,1.542-8.333a1.384,1.384,0,0,0,.028-.18c.878-5.344,1.8-12.124,2.4-19.751.014-.052,0-.108.014-.161a182.507,182.507,0,0,0-.6-36.686l0-.048c-.267-2.09-.578-4.179-.947-6.256A123.405,123.405,0,0,1,259.739,6.743ZM197.714,39.35C210.427,51.5,215.47,58.7,218.449,74.93c2.9,15.8,16.782,27.435,19.833,29.828a168.742,168.742,0,0,1,1.022,25.959c-2.749-6.082-7.056-12.251-11.538-18.655-6.441-9.206-13.1-18.724-15.3-28.48-2.609-11.557-10.471-31.262-16.875-46.342C196.26,37.931,196.966,38.634,197.714,39.35Zm7.926,51.7a132.368,132.368,0,0,1-19.269-65.869c.411.745.9,1.547,1.428,2.376,6.456,14.706,18.231,42.508,21.446,56.746,2.345,10.39,9.193,20.179,15.817,29.645,6.435,9.2,12.507,17.887,13.722,26.084-.387,4.982-.914,9.6-1.478,13.686A438.57,438.57,0,0,0,205.641,91.053ZM240.86,170.9a98.666,98.666,0,0,1,4.313,18.888c-2.29-5.313-4.766-11.013-7.441-16.931Q239.361,171.862,240.86,170.9ZM150.018,66.258c26.524,3.351,45.087,20.04,49.541,44.05a60.241,60.241,0,0,0-12.63-9.924c-4.786-2.721-9.792-5.35-15.091-8.133C150.847,81.227,127.52,68.967,112.1,47.275,120.54,55.115,133.539,64.176,150.018,66.258Zm.723,37.747C114.752,89.447,106.557,56.831,104.7,41.868c15.531,27.008,42.019,40.918,65.605,53.3,5.274,2.768,10.256,5.385,14.994,8.08a62.9,62.9,0,0,1,15.49,13.139c.013.013.022.028.034.041a128.888,128.888,0,0,1,10.906,14.409c-10.338-9.9-15.225-11.377-27.324-15.028A352.215,352.215,0,0,1,150.741,104.005ZM219.4,143.456c1.975,3.5,3.871,7.089,5.718,10.7a93.265,93.265,0,0,1-18.4-23.462C210.126,133.719,214.112,137.776,219.4,143.456ZM145.991,123.22l-28.953,6.7c-.79-.68-1.6-1.378-2.432-2.112-1.384-1.217-2.642-2.431-3.807-3.64A125.3,125.3,0,0,1,145.991,123.22ZM57.276,139.846c18.435.241,34.013-6.589,39.179-9.145a65.734,65.734,0,0,0,2.645,7.414C38.779,154.251,13.87,181.951,4.737,195.97,12.32,157.119,36.539,139.621,57.276,139.846Zm-.2,38.617c-6.217,9.609-13.054,9.57-22.5,9.526a82.8,82.8,0,0,0-13.771.756,31.944,31.944,0,0,0-8.231,2.4c11.926-14.536,37.363-36.566,87.908-49.99q1.141,2.334,2.529,4.64C82.741,151.369,67.687,162.059,57.073,178.463ZM113.568,154.3a61.185,61.185,0,0,1-15.87-33.27,78.143,78.143,0,0,0,3.877,9.182c17.312,34.749,60.611,61.661,98.751,79.654A181.783,181.783,0,0,1,113.568,154.3ZM45.676,248.1c3.2-8.5,5.652-10.467,9.048-13.188a45.863,45.863,0,0,0,9.415-9.751,1.7,1.7,0,0,0,.169-.286c18.5-40.334,52.467-54.136,58.3-56.249q4.923,4.743,9.989,8.929c-14.119,8.764-17.9,12.946-22.217,17.74s-9.232,10.256-26.515,22.064c-25.984,17.757-36.083,45.508-39.635,59.135C43.109,268.836,42.29,257.1,45.676,248.1Zm65.682-40.957c-3.7,4.337-6.763,8.3-9.465,11.8-8.406,10.879-14.48,18.738-31.011,27.105a50.371,50.371,0,0,0-18.309,16.078c5.647-13.453,15.68-30.1,33.154-42.041,17.609-12.032,22.653-17.637,27.1-22.581,4.243-4.712,7.948-8.809,22.459-17.732,2.37,1.895,4.755,3.688,7.147,5.416A76.414,76.414,0,0,0,111.357,207.143Zm118.667,7.828A96.05,96.05,0,0,1,216.6,213.59c-73.169-31.5-101.243-63.349-111.909-84.52a68.861,68.861,0,0,1-5.841-16.1,54.468,54.468,0,0,0,13.578,17.315c4.758,4.185,8.843,7.5,12.461,10.124a1.713,1.713,0,0,0,.219.161c13.5,9.75,20.4,9.764,31,8.858,9.732-.85,18.9,8.39,30.15,23.754l.02.028q2.153,2.943,4.416,6.182l.008.011q2.7,3.859,5.583,8.092c9.093,13.325,20.461,18.117,29.6,21.966,5.525,2.328,9.948,4.191,12.59,7.273A23.9,23.9,0,0,0,230.025,214.971ZM243.7,219.5c-2.221-7.044-8.876-9.848-16.547-13.082-8.734-3.679-19.605-8.261-28.152-20.785q-1.844-2.7-3.612-5.257c.772.03,1.668.05,2.712.05a171.918,171.918,0,0,0,23.172-1.925,168.208,168.208,0,0,1,22.344,16.012c.939,2.179,1.85,4.291,2.717,6.282,3.518,8.069,6.51,18.46,8.756,29.908A46.3,46.3,0,0,0,243.7,219.5Zm-32.176,29.686c2.876,0,5.7.067,8.442.18A50.594,50.594,0,0,1,256.2,267.015c-48.851-19.262-83.087-4.391-103.449,11.908a125.865,125.865,0,0,0-27.9,31.9C139.345,257.9,178.973,249.191,211.529,249.191Zm-42.382,36.46a33.907,33.907,0,0,0-5.327,7.573c-3.526,6.167-6.313,11.038-18.774,9.792a23.1,23.1,0,0,0-12.23,1.892A119.6,119.6,0,0,1,154.809,281.5c23.333-18.679,50.277-24.576,80.35-17.662C201.935,261.814,176.676,278.122,169.147,285.65ZM309.63,240.33c-15.43,16.243-23,35.486-27.88,50.438-4.03,12.36-16.753,18.635-22.473,20.891a118.966,118.966,0,0,0,2.421-13.5c2.653-3.707,22.822-32.179,30.953-51.975a99.5,99.5,0,0,0,5.325-18.7c2.287-10.913,4.493-21.3,16.94-38.843a110.314,110.314,0,0,0,.894,14.1C317.183,215.866,318.739,230.744,309.63,240.33ZM282.842,231.1c11.76-25.843,23.931-44.947,35.818-56.39a30.4,30.4,0,0,0-2.778,7.039c-16.125,21.2-18.676,33.331-21.133,45.059A95.721,95.721,0,0,1,289.6,244.93c-6.319,15.381-20.521,36.772-27.221,46.5q.307-3.841.453-7.809A471.991,471.991,0,0,1,282.842,231.1Zm-9.481-45.441c7.452-10.577,8.583-22.573,9.676-34.174.753-7.991,1.531-16.253,4.424-23.8,5.761-15.045,19.976-37.275,41.721-53.148-11.443,22.584-51.83,102.846-58.727,124.327a1.642,1.642,0,0,0,.1,1.247l-6.488,5.321C266.277,198.55,269.293,191.435,273.361,185.66Zm37.728-49.544c-5.788,3.148-11.771,6.4-13.275,13.856-.337,1.67-.651,3.352-.964,5.041-2.5,13.48-5.093,27.4-22.155,41.71,7.886-21.361,36.62-79.313,51.427-108.784a91.519,91.519,0,0,0-1.711,27.424C325.672,128.181,318.589,132.035,311.089,136.116Z" transform="translate(-167.621 -207.981)" fill="#c69252"/>
  </g>
</svg>
